<?xml version="1.0" encoding="UTF-8" standalone="no"?>
<!-- Created with Inkscape (http://www.inkscape.org/) -->
<!-- http://www.wu.ac.at/it/downloads/it-services-newsletter-10-2009.pdf -->
<svg xmlns:svg="http://www.w3.org/2000/svg" xmlns="http://www.w3.org/2000/svg" version="1.0" width="251.302" height="130.373">
  <path d="M 203.465,112.372 C 203.465,114.547 205.039,116.151 207.224,116.151 C 209.411,116.151 210.984,114.547 210.984,112.372 C 210.984,110.197 209.411,108.592 207.224,108.592 C 205.039,108.592 203.465,110.197 203.465,112.372 M 207.224,109.384 C 208.912,109.384 210.069,110.716 210.069,112.372 C 210.069,114.03 208.912,115.357 207.224,115.357 C 205.536,115.357 204.38,114.03 204.38,112.372 C 204.38,110.716 205.536,109.384 207.224,109.384 M 207.194,66.108 L 207.194,73.3 L 208.776,73.3 L 208.776,70.425 L 209.56,70.425 L 211.065,73.3 L 212.962,73.3 L 211.136,70.262 C 212.15,70.079 212.688,69.298 212.688,68.292 C 212.688,66.617 211.45,66.108 209.977,66.108 L 207.194,66.108 z M 211.045,68.282 C 211.045,69.066 210.291,69.086 209.714,69.086 L 208.776,69.086 L 208.776,67.448 L 209.814,67.448 C 210.395,67.448 211.045,67.56 211.045,68.282 M 188.97,94.555 L 188.116,94.555 L 188.116,101.745 L 188.97,101.745 L 188.97,94.555 z M 188.786,73.3 L 190.37,73.3 L 190.37,66.11 L 188.786,66.11 L 188.786,73.3 z M 209.621,96.535 C 209.621,94.756 208.149,94.555 206.759,94.555 L 204.919,94.555 L 204.919,101.745 L 205.771,101.745 L 205.771,98.514 L 206.869,98.514 L 208.82,101.745 L 209.864,101.745 L 207.821,98.432 C 208.94,98.261 209.621,97.579 209.621,96.535 M 206.534,97.723 L 205.771,97.723 L 205.771,95.345 L 206.97,95.345 C 207.804,95.345 208.707,95.497 208.707,96.535 C 208.707,97.723 207.477,97.723 206.534,97.723 M 210.344,80.331 L 208.057,86.242 L 208.036,86.242 L 205.824,80.331 L 204.859,80.331 L 207.611,87.522 L 208.431,87.522 L 211.246,80.331 L 210.344,80.331 z M 215.21,55.968 L 218.286,55.968 L 218.286,59.077 L 219.873,59.077 L 219.873,51.886 L 218.286,51.886 L 218.286,54.567 L 215.21,54.567 L 215.21,51.886 L 213.624,51.886 L 213.624,59.077 L 215.21,59.077 L 215.21,55.968 z M 212.66,87.522 L 213.511,87.522 L 213.511,80.332 L 212.66,80.332 L 212.66,87.522 z M 209.552,59.259 C 210.535,59.259 211.55,58.865 212.15,58.011 L 210.83,57.026 C 210.505,57.514 209.987,57.798 209.346,57.798 C 208.199,57.798 207.314,56.823 207.314,55.482 C 207.314,54.139 208.199,53.165 209.397,53.165 C 209.987,53.165 210.444,53.378 210.759,53.753 L 211.976,52.758 C 211.369,51.977 210.354,51.703 209.552,51.703 C 207.305,51.703 205.67,53.175 205.67,55.482 C 205.67,57.788 207.305,59.259 209.552,59.259 M 216.356,72.019 C 215.826,72.019 215.301,71.766 214.976,71.339 L 213.849,72.579 C 214.526,73.208 215.34,73.482 216.265,73.482 C 217.75,73.482 219.036,72.722 219.036,71.117 C 219.036,68.597 215.726,69.44 215.726,68.128 C 215.726,67.592 216.347,67.387 216.794,67.387 C 217.179,67.387 217.688,67.54 217.943,67.865 L 219.029,66.677 C 218.419,66.138 217.636,65.923 216.825,65.923 C 215.412,65.923 214.082,66.728 214.082,68.262 C 214.082,70.658 217.456,69.948 217.456,71.271 C 217.456,71.778 216.875,72.019 216.356,72.019 M 205.13,67.569 L 205.13,66.108 L 200.245,66.108 L 200.245,73.3 L 205.314,73.3 L 205.314,71.838 L 201.827,71.838 L 201.827,70.362 L 204.948,70.362 L 204.948,68.902 L 201.827,68.902 L 201.827,67.569 L 205.13,67.569 z M 191.295,86.061 L 187.81,86.061 L 187.81,84.586 L 190.929,84.586 L 190.929,83.126 L 187.81,83.126 L 187.81,81.792 L 191.111,81.792 L 191.111,80.331 L 186.227,80.331 L 186.227,87.522 L 191.295,87.522 L 191.295,86.061 z M 213.443,101.928 C 214.744,101.928 215.97,101.259 215.97,99.826 C 215.97,98.413 214.936,98.048 213.818,97.693 C 212.67,97.326 212.302,97.03 212.302,96.371 C 212.302,95.518 213.085,95.162 213.836,95.162 C 214.355,95.162 214.865,95.366 215.147,95.822 L 215.849,95.212 C 215.321,94.593 214.64,94.37 213.836,94.37 C 212.577,94.37 211.39,95.06 211.39,96.441 C 211.39,97.641 212.161,98.087 213.179,98.425 C 214.457,98.85 215.056,99.002 215.056,99.887 C 215.056,100.709 214.224,101.134 213.491,101.134 C 212.873,101.134 212.261,100.862 211.959,100.333 L 211.227,100.933 C 211.714,101.653 212.609,101.928 213.443,101.928 M 222.39,66.108 L 220.805,66.108 L 220.805,73.298 L 222.39,73.298 L 222.39,66.108 z M 228.659,80.331 L 227.805,80.331 L 227.805,86.303 L 227.785,86.303 L 223.619,80.331 L 222.544,80.331 L 222.544,87.522 L 223.396,87.522 L 223.396,81.55 L 223.416,81.55 L 227.584,87.522 L 228.659,87.522 L 228.659,80.331 z M 230.232,101.745 L 230.232,98.647 L 232.915,94.555 L 231.889,94.555 L 229.808,97.803 L 227.785,94.555 L 226.699,94.555 L 229.38,98.647 L 229.38,101.745 L 230.232,101.745 z M 230.956,73.3 L 231.555,71.776 L 234.347,71.776 L 234.966,73.3 L 236.756,73.3 L 233.628,66.108 L 232.315,66.108 L 229.207,73.3 L 230.956,73.3 z M 232.926,68.201 L 233.81,70.437 L 232.051,70.437 L 232.926,68.201 z M 232.784,64.777 C 232.784,64.29 232.367,63.946 231.901,63.946 C 231.452,63.946 231.077,64.341 231.077,64.777 C 231.077,65.243 231.443,65.651 231.92,65.651 C 232.416,65.651 232.784,65.263 232.784,64.777 M 241.906,80.331 L 238.736,87.522 L 239.702,87.522 L 240.445,85.755 L 244.04,85.755 L 244.771,87.522 L 245.766,87.522 L 242.707,80.331 L 241.906,80.331 z M 240.78,84.963 L 242.272,81.43 L 242.291,81.43 L 243.714,84.963 L 240.78,84.963 z M 245.126,57.798 C 244.597,57.798 244.07,57.545 243.746,57.117 L 242.616,58.357 C 243.297,58.986 244.11,59.259 245.036,59.259 C 246.517,59.259 247.807,58.5 247.807,56.893 C 247.807,54.373 244.496,55.217 244.496,53.906 C 244.496,53.368 245.116,53.165 245.564,53.165 C 245.951,53.165 246.459,53.317 246.714,53.642 L 247.797,52.454 C 247.189,51.916 246.407,51.703 245.594,51.703 C 244.18,51.703 242.851,52.506 242.851,54.038 C 242.851,56.436 246.224,55.725 246.224,57.046 C 246.224,57.556 245.645,57.798 245.126,57.798 M 234.896,64.777 C 234.896,64.29 234.481,63.946 234.015,63.946 C 233.565,63.946 233.19,64.341 233.19,64.777 C 233.19,65.243 233.555,65.651 234.032,65.651 C 234.529,65.651 234.896,65.263 234.896,64.777 M 236.492,67.509 L 238.545,67.509 L 238.545,73.3 L 240.126,73.3 L 240.126,67.509 L 242.181,67.509 L 242.181,66.108 L 236.492,66.108 L 236.492,67.509 z M 238.107,59.077 L 239.691,59.077 L 239.691,53.286 L 241.741,53.286 L 241.741,51.886 L 236.056,51.886 L 236.056,53.286 L 238.107,53.286 L 238.107,59.077 z M 194.06,101.745 L 196.871,94.555 L 195.967,94.555 L 193.681,100.464 L 193.662,100.464 L 191.448,94.555 L 190.482,94.555 L 193.235,101.745 L 194.06,101.745 z M 223.55,57.553 L 226.344,57.553 L 226.961,59.077 L 228.75,59.077 L 225.622,51.886 L 224.311,51.886 L 221.204,59.077 L 222.95,59.077 L 223.55,57.553 z M 224.92,53.978 L 225.806,56.213 L 224.047,56.213 L 224.92,53.978 z M 220.43,81.121 L 220.43,80.331 L 215.91,80.331 L 215.91,87.522 L 220.612,87.522 L 220.612,86.731 L 216.761,86.731 L 216.761,84.168 L 220.186,84.168 L 220.186,83.38 L 216.761,83.38 L 216.761,81.121 L 220.43,81.121 z M 231.726,56.273 L 234.724,56.273 L 234.724,54.811 L 231.726,54.811 L 231.726,53.347 L 234.966,53.347 L 234.966,51.886 L 230.142,51.886 L 230.142,59.077 L 231.726,59.077 L 231.726,56.273 z M 218.845,94.555 L 217.994,94.555 L 217.994,101.745 L 218.845,101.745 L 218.845,94.555 z M 237.171,87.522 L 237.171,80.331 L 236.319,80.331 L 236.319,86.303 L 236.3,86.303 L 232.133,80.331 L 231.056,80.331 L 231.056,87.522 L 231.909,87.522 L 231.909,81.55 L 231.931,81.55 L 236.095,87.522 L 237.171,87.522 z M 223.782,67.509 L 225.836,67.509 L 225.836,73.3 L 227.417,73.3 L 227.417,67.509 L 229.47,67.509 L 229.47,66.108 L 223.782,66.108 L 223.782,67.509 z M 203.061,126.412 L 203.061,126.392 C 203.831,126.158 204.319,125.6 204.319,124.767 C 204.319,123.444 203.12,123 201.932,123 L 199.737,123 L 199.737,130.19 L 201.88,130.19 C 203.211,130.19 204.684,129.764 204.684,128.181 C 204.684,127.233 203.982,126.493 203.061,126.412 M 200.59,123.791 L 201.86,123.791 C 202.633,123.791 203.406,123.992 203.406,124.878 C 203.406,125.875 202.572,126.047 201.769,126.047 L 200.59,126.047 L 200.59,123.791 z M 202.032,129.398 L 200.59,129.398 L 200.59,126.838 L 202.054,126.838 C 202.917,126.838 203.771,127.142 203.771,128.147 C 203.771,129.063 202.865,129.398 202.032,129.398 M 220.564,130.19 L 221.416,130.19 L 221.416,123 L 220.564,123 L 220.564,130.19 z M 226.068,94.555 L 220.462,94.555 L 220.462,95.345 L 222.839,95.345 L 222.839,101.745 L 223.691,101.745 L 223.691,95.345 L 226.068,95.345 L 226.068,94.555 z M 216.337,126.138 C 215.188,125.771 214.824,125.475 214.824,124.817 C 214.824,123.963 215.605,123.607 216.356,123.607 C 216.875,123.607 217.384,123.811 217.669,124.267 L 218.369,123.658 C 217.841,123.038 217.161,122.815 216.356,122.815 C 215.096,122.815 213.91,123.506 213.91,124.886 C 213.91,126.086 214.68,126.532 215.695,126.87 C 216.977,127.295 217.577,127.447 217.577,128.332 C 217.577,129.155 216.744,129.579 216.011,129.579 C 215.394,129.579 214.781,129.307 214.477,128.778 L 213.748,129.378 C 214.234,130.098 215.129,130.373 215.96,130.373 C 217.261,130.373 218.489,129.704 218.489,128.271 C 218.489,126.858 217.456,126.493 216.337,126.138 M 222.585,115.967 L 223.439,115.967 L 223.439,108.776 L 222.585,108.776 L 222.585,115.967 z M 216.386,114.413 L 216.367,114.413 L 213.929,108.777 L 212.66,108.777 L 212.66,115.967 L 213.511,115.967 L 213.511,109.933 L 213.532,109.933 L 216.114,115.967 L 216.63,115.967 L 219.211,109.933 L 219.234,109.933 L 219.234,115.967 L 220.085,115.967 L 220.085,108.777 L 218.847,108.777 L 216.386,114.413 z M 190.797,123 L 188.035,123 L 188.035,130.19 L 190.797,130.19 C 192.209,130.19 194.321,129.245 194.321,126.595 C 194.321,123.942 192.209,123 190.797,123 M 190.512,129.398 L 188.887,129.398 L 188.887,123.791 L 190.512,123.791 C 192.16,123.791 193.41,124.623 193.41,126.595 C 193.41,128.565 192.16,129.398 190.512,129.398 M 193.337,112.372 C 193.337,110.197 191.764,108.592 189.579,108.592 C 187.394,108.592 185.82,110.197 185.82,112.372 C 185.82,114.547 187.394,116.151 189.579,116.151 C 191.764,116.151 193.337,114.547 193.337,112.372 M 186.734,112.372 C 186.734,110.716 187.891,109.384 189.579,109.384 C 191.266,109.384 192.424,110.716 192.424,112.372 C 192.424,114.03 191.266,115.357 189.579,115.357 C 187.891,115.357 186.734,114.03 186.734,112.372 M 201.432,115.967 L 201.432,108.777 L 200.58,108.777 L 200.58,114.748 L 200.561,114.748 L 196.394,108.777 L 195.319,108.777 L 195.319,115.967 L 196.172,115.967 L 196.172,109.995 L 196.191,109.995 L 200.359,115.967 L 201.432,115.967 z M 211.034,127.327 C 211.034,128.483 210.609,129.579 209.174,129.579 C 207.741,129.579 207.314,128.483 207.314,127.327 L 207.314,123 L 206.462,123 L 206.462,127.447 C 206.462,129.013 207.194,130.373 209.174,130.373 C 211.156,130.373 211.886,129.013 211.886,127.447 L 211.886,123 L 211.034,123 L 211.034,127.327 z M 251.302,95.345 L 251.302,94.555 L 246.844,94.555 L 246.844,101.745 L 247.696,101.745 L 247.696,98.514 L 251.049,98.514 L 251.049,97.723 L 247.696,97.723 L 247.696,95.345 L 251.302,95.345 z M 199.991,87.522 L 199.991,80.331 L 198.407,80.331 L 198.407,85.327 L 198.385,85.327 L 195.329,80.331 L 193.175,80.331 L 193.175,87.522 L 194.759,87.522 L 194.759,82.403 L 194.779,82.403 L 197.92,87.522 L 199.991,87.522 z M 241.102,94.37 C 238.919,94.37 237.345,95.975 237.345,98.149 C 237.345,100.324 238.919,101.928 241.102,101.928 C 243.287,101.928 244.861,100.324 244.861,98.149 C 244.861,95.975 243.287,94.37 241.102,94.37 M 241.102,101.134 C 239.416,101.134 238.258,99.807 238.258,98.149 C 238.258,96.493 239.416,95.162 241.102,95.162 C 242.79,95.162 243.949,96.493 243.949,98.149 C 243.949,99.807 242.79,101.134 241.102,101.134 M 241.092,126.138 C 239.946,125.771 239.58,125.475 239.58,124.817 C 239.58,123.963 240.364,123.607 241.115,123.607 C 241.634,123.607 242.141,123.811 242.425,124.267 L 243.125,123.658 C 242.597,123.038 241.916,122.815 241.115,122.815 C 239.854,122.815 238.666,123.506 238.666,124.886 C 238.666,126.086 239.439,126.532 240.454,126.87 C 241.735,127.295 242.334,127.447 242.334,128.332 C 242.334,129.155 241.5,129.579 240.769,129.579 C 240.15,129.579 239.539,129.307 239.234,128.778 L 238.505,129.378 C 238.99,130.098 239.883,130.373 240.719,130.373 C 242.019,130.373 243.246,129.704 243.246,128.271 C 243.246,126.858 242.212,126.493 241.092,126.138 M 184.966,128.972 L 184.948,128.972 L 180.781,123 L 179.705,123 L 179.705,130.19 L 180.556,130.19 L 180.556,124.217 L 180.576,124.217 L 184.742,130.19 L 185.818,130.19 L 185.818,123 L 184.966,123 L 184.966,128.972 z M 235.577,111.916 C 234.431,111.548 234.064,111.252 234.064,110.595 C 234.064,109.741 234.845,109.384 235.596,109.384 C 236.115,109.384 236.625,109.588 236.909,110.045 L 237.61,109.436 C 237.081,108.816 236.4,108.592 235.596,108.592 C 234.337,108.592 233.151,109.283 233.151,110.663 C 233.151,111.863 233.922,112.31 234.939,112.647 C 236.219,113.072 236.818,113.225 236.818,114.111 C 236.818,114.932 235.985,115.357 235.251,115.357 C 234.634,115.357 234.024,115.084 233.719,114.556 L 232.987,115.156 C 233.474,115.876 234.369,116.151 235.204,116.151 C 236.504,116.151 237.73,115.482 237.73,114.048 C 237.73,112.636 236.696,112.271 235.577,111.916 M 229.076,128.972 L 229.057,128.972 L 224.89,123 L 223.815,123 L 223.815,130.19 L 224.666,130.19 L 224.666,124.217 L 224.686,124.217 L 228.854,130.19 L 229.929,130.19 L 229.929,123 L 229.076,123 L 229.076,128.972 z M 228.974,115.357 C 227.359,115.357 226.231,114.04 226.231,112.372 C 226.231,110.797 227.369,109.384 228.974,109.384 C 229.664,109.384 230.345,109.68 230.771,110.259 L 231.514,109.72 C 230.905,108.927 229.95,108.592 228.974,108.592 C 226.841,108.592 225.318,110.259 225.318,112.372 C 225.318,114.556 226.912,116.151 228.974,116.151 C 230.124,116.151 231.056,115.756 231.696,114.892 L 231.056,114.353 C 230.549,115.003 229.846,115.357 228.974,115.357 M 233.177,126.838 L 236.604,126.838 L 236.604,126.047 L 233.177,126.047 L 233.177,123.791 L 236.847,123.791 L 236.847,123 L 232.327,123 L 232.327,130.19 L 237.03,130.19 L 237.03,129.398 L 233.177,129.398 L 233.177,126.838 z M 247.351,126.138 C 246.202,125.771 245.837,125.475 245.837,124.817 C 245.837,123.963 246.621,123.607 247.371,123.607 C 247.892,123.607 248.4,123.811 248.682,124.267 L 249.384,123.658 C 248.855,123.038 248.175,122.815 247.371,122.815 C 246.111,122.815 244.925,123.506 244.925,124.886 C 244.925,126.086 245.696,126.532 246.714,126.87 C 247.992,127.295 248.591,127.447 248.591,128.332 C 248.591,129.155 247.759,129.579 247.025,129.579 C 246.407,129.579 245.795,129.307 245.492,128.778 L 244.762,129.378 C 245.248,130.098 246.141,130.373 246.976,130.373 C 248.276,130.373 249.505,129.704 249.505,128.271 C 249.505,126.858 248.47,126.493 247.351,126.138 M 187.75,56.202 L 188.531,56.202 L 190.037,59.077 L 191.936,59.077 L 190.109,56.04 C 191.123,55.857 191.659,55.076 191.659,54.069 C 191.659,52.393 190.421,51.886 188.948,51.886 L 186.166,51.886 L 186.166,59.077 L 187.75,59.077 L 187.75,56.202 z M 187.75,53.225 L 188.785,53.225 C 189.365,53.225 190.015,53.337 190.015,54.06 C 190.015,54.842 189.265,54.862 188.684,54.862 L 187.75,54.862 L 187.75,53.225 z M 184.489,114.892 L 183.847,114.353 C 183.34,115.003 182.639,115.357 181.764,115.357 C 180.149,115.357 179.022,114.04 179.022,112.372 C 179.022,110.797 180.161,109.384 181.764,109.384 C 182.457,109.384 183.137,109.68 183.564,110.259 L 184.304,109.72 C 183.695,108.927 182.74,108.592 181.764,108.592 C 179.631,108.592 178.11,110.259 178.11,112.372 C 178.11,114.556 179.704,116.151 181.764,116.151 C 182.914,116.151 183.847,115.756 184.489,114.892 M 179.917,66.108 L 179.917,73.3 L 181.5,73.3 L 181.5,68.181 L 181.522,68.181 L 184.662,73.3 L 186.734,73.3 L 186.734,66.108 L 185.149,66.108 L 185.149,71.105 L 185.129,71.105 L 182.07,66.108 L 179.917,66.108 z M 179.551,94.555 L 179.551,101.745 L 180.404,101.745 L 180.404,95.772 L 180.426,95.772 L 184.59,101.745 L 185.667,101.745 L 185.667,94.555 L 184.815,94.555 L 184.815,100.526 L 184.795,100.526 L 180.628,94.555 L 179.551,94.555 z M 201.586,57.798 C 201.056,57.798 200.529,57.545 200.202,57.117 L 199.077,58.357 C 199.76,58.986 200.57,59.259 201.495,59.259 C 202.979,59.259 204.266,58.5 204.266,56.893 C 204.266,54.373 200.956,55.217 200.956,53.906 C 200.956,53.368 201.574,53.165 202.024,53.165 C 202.41,53.165 202.917,53.317 203.171,53.642 L 204.258,52.454 C 203.649,51.916 202.865,51.703 202.054,51.703 C 200.64,51.703 199.31,52.506 199.31,54.038 C 199.31,56.436 202.684,55.725 202.684,57.046 C 202.684,57.556 202.104,57.798 201.586,57.798 M 195.319,70.822 L 195.296,70.822 L 193.519,66.108 L 191.711,66.108 L 194.586,73.3 L 195.856,73.3 L 198.824,66.108 L 197.126,66.108 L 195.319,70.822 z M 202.989,100.953 L 199.139,100.953 L 199.139,98.393 L 202.561,98.393 L 202.561,97.602 L 199.139,97.602 L 199.139,95.345 L 202.805,95.345 L 202.805,94.555 L 198.285,94.555 L 198.285,101.745 L 202.989,101.745 L 202.989,100.953 z M 182.529,87.522 L 184.114,87.522 L 184.114,80.332 L 182.529,80.332 L 182.529,87.522 z M 194.568,59.077 L 196.15,59.077 L 196.15,53.286 L 198.204,53.286 L 198.204,51.886 L 192.515,51.886 L 192.515,53.286 L 194.568,53.286 L 194.568,59.077 z M 171.78,66.108 L 171.78,70.528 C 171.78,72.225 172.816,73.482 174.816,73.482 C 176.807,73.482 177.845,72.225 177.845,70.528 L 177.845,66.108 L 176.26,66.108 L 176.26,70.466 C 176.26,71.351 175.651,72.019 174.816,72.019 C 173.972,72.019 173.364,71.351 173.364,70.466 L 173.364,66.108 L 171.78,66.108 z M 176.462,109.566 L 176.462,108.777 L 171.943,108.777 L 171.943,115.967 L 176.645,115.967 L 176.645,115.176 L 172.796,115.176 L 172.796,112.613 L 176.219,112.613 L 176.219,111.824 L 172.796,111.824 L 172.796,109.566 L 176.462,109.566 z M 174.279,123 L 171.11,130.19 L 172.076,130.19 L 172.816,128.422 L 176.411,128.422 L 177.142,130.19 L 178.14,130.19 L 175.082,123 L 174.279,123 z M 173.151,127.631 L 174.642,124.097 L 174.665,124.097 L 176.086,127.631 L 173.151,127.631 z M 174.522,87.522 L 176.109,82.547 L 176.128,82.547 L 177.712,87.522 L 179.123,87.522 L 181.227,80.331 L 179.622,80.331 L 178.414,85.065 L 178.394,85.065 L 176.9,80.331 L 175.427,80.331 L 173.922,84.942 L 173.904,84.942 L 172.756,80.331 L 171.029,80.331 L 173.161,87.522 L 174.522,87.522 z M 177.336,99.002 L 177.336,94.555 L 176.485,94.555 L 176.485,98.882 C 176.485,100.038 176.059,101.134 174.624,101.134 C 173.191,101.134 172.765,100.038 172.765,98.882 L 172.765,94.555 L 171.914,94.555 L 171.914,99.002 C 171.914,100.568 172.642,101.928 174.624,101.928 C 176.606,101.928 177.336,100.568 177.336,99.002 M 184.112,51.886 L 182.527,51.886 L 182.527,59.077 L 184.112,59.077 L 184.112,51.886 z M 181.227,51.886 L 179.622,51.886 L 178.414,56.618 L 178.394,56.618 L 176.9,51.886 L 175.427,51.886 L 173.922,56.497 L 173.904,56.497 L 172.756,51.886 L 171.029,51.886 L 173.161,59.077 L 174.522,59.077 L 176.109,54.1 L 176.128,54.1 L 177.712,59.077 L 179.123,59.077 L 181.227,51.886 z M 181.34,2.846 L 182.14,0 L 162.901,0 L 162.117,2.846 L 169.147,2.846 C 169.147,2.846 155.927,41.672 151.171,55.425 C 145.172,72.762 135.019,75.961 127.369,75.961 C 118.482,75.961 113.457,71.505 113.457,63.863 C 113.457,58.752 115.465,53.082 116.774,49.126 C 122.565,31.63 132.66,2.846 132.66,2.846 L 138.906,2.846 L 139.721,0 L 105.609,0 L 104.807,2.846 L 111.854,2.846 L 97.019,44.8 C 94.86,50.932 94.235,54.018 94.322,58.008 L 76.45,2.846 L 83.496,2.846 L 82.712,0 L 48.456,0 L 49.271,2.846 L 55.506,2.846 L 62.3,23.53 L 50.61,57.775 L 28.521,2.846 L 35.582,2.846 L 34.799,0 L 0,0 L 0.786,2.846 L 7.005,2.846 L 38.452,79.772 L 49.089,79.772 L 65.295,32.647 L 80.77,79.772 L 91.406,79.772 L 96.13,67.328 C 100.008,76.815 109.867,81.782 123.581,81.782 C 146.614,81.782 152.577,68.829 158.16,52.748 C 163.089,38.547 175.11,2.846 175.11,2.846 L 181.34,2.846 z" style="fill:#121212;fill-opacity:1;fill-rule:nonzero;stroke:none"/>
</svg>