<?xml version="1.0" encoding="utf-8"?>
<!-- Generator: Adobe Illustrator 27.9.0, SVG Export Plug-In . SVG Version: 6.00 Build 0)  -->
<svg version="1.1" id="Ebene_1" xmlns="http://www.w3.org/2000/svg" xmlns:xlink="http://www.w3.org/1999/xlink" x="0px" y="0px"
	 viewBox="0 0 1190.55 841.89" style="enable-background:new 0 0 1190.55 841.89;" xml:space="preserve">
<style type="text/css">
	.st0{fill:#1E0000;}
</style>
<g>
	<path class="st0" d="M769.33,280.87c-3.06-20.16-11.1-38.07-24.18-53.69c-9.83-11.74-21.54-21.28-34.55-29.29
		c-0.63-0.39-1.32-0.85-2.02-0.91c-0.66-0.06-1.58,0.16-2.01,0.61c-0.84,0.88-1.51,1.97-2.08,3.05c-3.28,6.14-6.51,12.31-9.77,18.45
		c-28.19,53.13-55.78,106.58-84.34,159.52c-13.57,25.16-26.68,50.56-39.99,75.86c-6.25,11.89-11.93,24.05-16.82,36.56
		c-6.98,17.89-12.32,36.21-14.74,55.33c-2.81,22.12-0.71,43.65,7.14,64.56c0.96,2.56,2.01,5.09,3.23,7.53
		c6.62,13.22,15.17,25.07,25.46,35.67c7.33,7.56,15.93,13.4,24.97,18.75c0.74-0.49,1.54-0.76,1.9-1.31
		c0.95-1.45,1.72-3.02,2.53-4.56c41.7-79.17,83.4-158.34,125.09-237.51c1.04-1.98,1.99-4,2.96-6.02c1.5-3.14,2.86-6.34,4.47-9.42
		c6.81-13,13.13-26.23,18.43-39.92c7.03-18.14,12.47-36.7,14.7-56.11C771.14,305.63,771.21,293.25,769.33,280.87z"/>
	<path class="st0" d="M543.7,401.48c3.17,3.64,9.36,3.63,12.55-0.06c1.12-1.3,2.03-2.81,2.86-4.33
		c7.87-14.37,15.73-28.75,23.53-43.17c1.18-2.17,2.18-4.46,3.03-6.79c1.93-5.3,1.99-10.66,0.33-16.08
		c-1.09-3.59-2.61-6.96-4.37-10.25c-7.6-14.24-15.17-28.49-22.73-42.75c-6.51-12.28-12.98-24.59-19.5-36.87
		c-1.16-2.19-2.42-4.34-3.79-6.4c-1.73-2.6-4.18-4.27-7.32-4.63c-2.71-0.31-5.43-0.58-8.16-0.6c-8.94-0.07-17.88-0.03-26.82-0.03
		c0,0,0-0.01,0-0.01c-8.69,0-17.38,0-26.07,0c-1.74,0-3.49-0.09-5.21,0.11c-1.45,0.17-2.93,0.54-4.28,1.1
		c-1.97,0.81-3.08,2.44-3.39,4.56c-0.29,2.01-0.09,3.98,0.84,5.81c1.01,1.99,2.08,3.96,3.15,5.91c26.41,48.1,52.82,96.2,79.22,144.3
		c1.19,2.18,2.33,4.39,3.59,6.53C541.92,399.1,542.73,400.37,543.7,401.48z"/>
</g>
</svg>
