<?xml version="1.0" encoding="utf-8"?>
<!-- Generator: Adobe Illustrator 27.9.0, SVG Export Plug-In . SVG Version: 6.00 Build 0)  -->
<svg version="1.1" id="Ebene_1" xmlns="http://www.w3.org/2000/svg" xmlns:xlink="http://www.w3.org/1999/xlink" x="0px" y="0px"
	 viewBox="0 0 1190.55 841.89" style="enable-background:new 0 0 1190.55 841.89;" xml:space="preserve">
<style type="text/css">
	.st0{fill:#1D1D1B;}
</style>
<g>
	<path class="st0" d="M464.29,258.37c-9.83-11.74-21.54-21.28-34.55-29.29c-0.63-0.39-1.32-0.85-2.02-0.91
		c-0.66-0.06-1.58,0.16-2.01,0.61c-0.84,0.88-1.51,1.97-2.09,3.05c-3.28,6.14-6.51,12.31-9.77,18.45
		c-28.19,53.13-55.78,106.58-84.34,159.52c-13.57,25.16-26.68,50.56-39.99,75.86c-6.25,11.89-11.93,24.05-16.82,36.56
		c-6.98,17.89-12.32,36.21-14.74,55.33c-2.81,22.12-0.71,43.65,7.14,64.56c0.96,2.56,2.01,5.09,3.23,7.53
		c6.62,13.22,15.17,25.07,25.46,35.67c7.33,7.56,15.93,13.4,24.97,18.75c0.74-0.49,1.54-0.76,1.9-1.31
		c0.95-1.45,1.72-3.02,2.53-4.56c41.7-79.17,83.4-158.34,125.09-237.51c1.04-1.98,1.99-4,2.96-6.02c1.5-3.14,2.86-6.34,4.47-9.42
		c6.81-13,13.13-26.23,18.43-39.92c7.03-18.14,12.47-36.7,14.7-56.11c1.42-12.41,1.5-24.79-0.38-37.17
		C485.41,291.9,477.37,274,464.29,258.37z"/>
	<path class="st0" d="M262.84,432.67c3.17,3.64,9.36,3.63,12.55-0.06c1.12-1.3,2.03-2.81,2.86-4.33
		c7.87-14.37,15.73-28.75,23.53-43.17c1.18-2.17,2.18-4.46,3.03-6.79c1.93-5.3,1.99-10.66,0.33-16.08
		c-1.09-3.59-2.61-6.96-4.37-10.25c-7.6-14.24-15.17-28.49-22.73-42.75c-6.51-12.28-12.98-24.59-19.5-36.87
		c-1.16-2.19-2.42-4.34-3.79-6.4c-1.73-2.6-4.18-4.27-7.32-4.63c-2.71-0.31-5.43-0.58-8.16-0.6c-8.94-0.07-17.88-0.03-26.82-0.03
		c0,0,0-0.01,0-0.01c-8.69,0-17.38,0-26.07,0c-1.74,0-3.49-0.09-5.21,0.11c-1.45,0.17-2.93,0.54-4.28,1.1
		c-1.97,0.81-3.08,2.44-3.39,4.56c-0.29,2.01-0.09,3.98,0.84,5.81c1.01,1.99,2.08,3.96,3.15,5.91c26.41,48.1,52.82,96.2,79.22,144.3
		c1.2,2.18,2.33,4.39,3.59,6.53C261.05,430.29,261.87,431.56,262.84,432.67z"/>
</g>
<g>
	<path class="st0" d="M727.59,645.56c-0.15-0.59-0.22-1.32-0.22-2.2c0-0.88,0.44-1.61,1.32-2.2c6.02-4.55,10.75-10.2,14.2-16.95
		c3.45-6.75,5.17-13.94,5.17-21.58c0-8.95-2.24-17.17-6.71-24.66c-4.48-7.49-10.53-13.43-18.16-17.83c-7.63-4.4-16-6.6-25.1-6.6
		h-45.57c-1.18,0-2.17,0.41-2.97,1.21c-0.81,0.81-1.21,1.8-1.21,2.97v35.45c0,1.47,0.55,2.75,1.65,3.85c1.1,1.1,2.38,1.65,3.85,1.65
		h14.53c1.61,0,2.93-0.55,3.96-1.65c1.02-1.1,1.54-2.38,1.54-3.85v-5.5c0-1.47,0.55-2.75,1.65-3.85c1.1-1.1,2.46-1.65,4.07-1.65
		h18.49c5.87,0,10.82,1.98,14.86,5.94c4.04,3.96,6.06,8.81,6.06,14.53c0,5.58-2.02,10.35-6.06,14.31
		c-4.04,3.96-8.99,5.94-14.86,5.94h-45.57c-1.18,0-2.17,0.41-2.97,1.21c-0.81,0.81-1.21,1.8-1.21,2.97v76.84
		c0,1.18,0.4,2.13,1.21,2.86c0.81,0.74,1.8,1.1,2.97,1.1h17.17c1.17,0,2.16-0.36,2.97-1.1c0.8-0.73,1.21-1.69,1.21-2.86v-48.44
		c0-1.61,0.47-2.68,1.43-3.19c0.95-0.51,2.31-0.77,4.07-0.77h18.71c2.2,0,3.67,0.15,4.4,0.44c0.73,0.3,1.32,0.88,1.76,1.76
		l22.9,51.52c0.58,1.18,1.28,1.91,2.09,2.2c0.81,0.3,2.02,0.44,3.63,0.44h18.05c2.05,0,3.08-0.81,3.08-2.42
		c0-0.88-0.3-1.83-0.88-2.86L727.59,645.56z"/>
	<path class="st0" d="M636.38,680.7H560.6c-1.03,0-1.98-0.44-2.86-1.32c-0.88-0.88-1.32-1.83-1.32-2.86V652.5
		c0-3.08,1.69-4.63,5.07-4.63h56.18c1.03,0,1.91-0.33,2.64-0.99c0.73-0.66,1.1-1.5,1.1-2.53V625.4c0-1.03-0.37-1.87-1.1-2.53
		c-0.74-0.66-1.62-0.99-2.64-0.99h-55.52c-3.82,0-5.73-1.39-5.73-4.19v-15.86c0-1.17-0.37-2.13-1.1-2.86
		c-0.74-0.73-1.69-1.1-2.86-1.1h-18.73c-1.03,0-1.95,0.37-2.75,1.1c-0.81,0.74-1.21,1.69-1.21,2.86v101.78
		c0,1.03,0.4,1.95,1.21,2.75c0.81,0.81,1.72,1.21,2.75,1.21h102.66c1.17,0,2.13-0.4,2.86-1.21c0.73-0.8,1.1-1.72,1.1-2.75v-18.95
		c0-1.17-0.37-2.13-1.1-2.86C638.51,681.07,637.56,680.7,636.38,680.7z"/>
	<path class="st0" d="M533.73,580.46h102.22c1.17,0,2.16-0.44,2.97-1.32c0.81-0.88,1.21-1.84,1.21-2.86v-18.95
		c0-1.03-0.41-1.95-1.21-2.75c-0.81-0.8-1.8-1.21-2.97-1.21H533.73c-1.03,0-1.95,0.37-2.75,1.1c-0.81,0.74-1.21,1.69-1.21,2.86
		v18.95c0,1.18,0.4,2.17,1.21,2.97C531.78,580.06,532.7,580.46,533.73,580.46z"/>
	<path class="st0" d="M655.99,386.91h-21.91c-1.02,0-1.97,0.4-2.85,1.21c-0.88,0.8-1.31,1.79-1.31,2.96v145.46
		c0,1.02,0.4,1.94,1.21,2.74c0.8,0.8,1.79,1.21,2.96,1.21h21.91c1.17,0,2.12-0.4,2.85-1.21c0.73-0.8,1.1-1.71,1.1-2.74V391.07
		c0-1.17-0.4-2.15-1.2-2.96C657.92,387.31,657.01,386.91,655.99,386.91z"/>
	<path class="st0" d="M760.95,426.16h-63.93c-1.7,0.27-5.47,1.3-6.24,5.22v23.57c0.02,0.2,0.04,0.41,0.04,0.62v20.5h-0.04v60.66
		c0,0.97,0.38,1.85,1.15,2.61c0.76,0.77,1.7,1.15,2.82,1.15h20.86c1.11,0,2.01-0.38,2.71-1.15c0.69-0.76,1.04-1.63,1.04-2.61v-54.04
		h0.03v-27.12c0-1.23,0.46-2.31,1.38-3.27c0.92-0.95,2.03-1.43,3.35-1.43h36.83c0.66,0,1.25-0.27,1.77-0.82
		c0.52-0.54,0.79-1.23,0.79-2.04v-19c0-0.82-0.26-1.5-0.79-2.04C762.19,426.43,761.6,426.16,760.95,426.16z"/>
	<path class="st0" d="M615.52,512.69h-51.17c-1.13,0-2.11-0.47-2.96-1.42c-0.85-0.95-1.27-2-1.27-3.17V391.7
		c0-1.17-0.42-2.22-1.27-3.17c-0.85-0.95-1.9-1.42-3.17-1.42h-22.84c-1.13,0-2.15,0.48-3.07,1.42c-0.92,0.95-1.37,2.01-1.37,3.17
		v144.18c0,1.31,0.46,2.41,1.37,3.28c0.92,0.88,1.94,1.31,3.07,1.31h82.68c1.27,0,2.33-0.44,3.17-1.31
		c0.85-0.88,1.27-1.97,1.27-3.28v-18.82c0-1.17-0.42-2.19-1.27-3.06C617.85,513.13,616.79,512.69,615.52,512.69z"/>
	<path class="st0" d="M878.5,386.21h-86.83c-1.02,0-1.94,0.37-2.74,1.09c-0.8,0.73-1.2,1.68-1.2,2.84v18.82
		c0,1.17,0.4,2.15,1.2,2.95c0.8,0.8,1.71,1.2,2.74,1.2h14.05c1.39,0.04,2.58,0.5,3.57,1.42c1.03,0.96,1.54,2.17,1.54,3.63v119.27
		c0,1.91,0.95,2.86,2.86,2.86h26.18c0.73,0,1.39-0.25,1.98-0.77c0.58-0.51,0.88-1.21,0.88-2.09V418.17c0-1.32,0.51-2.49,1.54-3.52
		c0.99-0.99,2.18-1.49,3.58-1.53h30.64c1.17,0,2.15-0.44,2.95-1.31c0.8-0.88,1.2-1.82,1.2-2.85v-18.82c0-1.02-0.4-1.93-1.2-2.74
		C880.66,386.61,879.67,386.21,878.5,386.21z"/>
	<path class="st0" d="M774.55,386.21H673.01c-1.02,0-1.94,0.37-2.74,1.09c-0.8,0.73-1.2,1.68-1.2,2.84v18.82
		c0,1.17,0.4,2.15,1.2,2.95c0.8,0.8,1.71,1.2,2.74,1.2h101.54c1.17,0,2.15-0.44,2.95-1.31c0.8-0.88,1.2-1.82,1.2-2.85v-18.82
		c0-1.02-0.4-1.93-1.2-2.74C776.7,386.61,775.72,386.21,774.55,386.21z"/>
	<path class="st0" d="M740.41,219.36c-3.55-4.24-7.77-7.68-12.47-10.57c-0.23-0.14-0.48-0.3-0.73-0.33
		c-0.24-0.02-0.57,0.06-0.73,0.22c-0.3,0.32-0.54,0.71-0.75,1.1c-1.18,2.21-2.35,4.44-3.52,6.66
		c-10.17,19.17-20.13,38.46-30.44,57.57c-4.9,9.08-9.63,18.25-14.43,27.38c-2.26,4.29-4.31,8.68-6.07,13.19
		c-2.52,6.46-4.45,13.07-5.32,19.97c-1.01,7.98-0.26,15.75,2.58,23.3c0.35,0.92,0.73,1.84,1.17,2.72c2.39,4.77,5.47,9.05,9.19,12.87
		c2.65,2.73,5.75,4.84,9.01,6.77c0.27-0.18,0.55-0.27,0.68-0.47c0.34-0.52,0.62-1.09,0.91-1.65c15.05-28.57,30.1-57.14,45.14-85.71
		c0.38-0.71,0.72-1.44,1.07-2.17c0.54-1.13,1.03-2.29,1.61-3.4c2.46-4.69,4.74-9.46,6.65-14.41c2.54-6.55,4.5-13.24,5.3-20.25
		c0.51-4.48,0.54-8.94-0.14-13.41C748.03,231.46,745.13,225,740.41,219.36z"/>
	<path class="st0" d="M667.71,282.26c1.14,1.31,3.38,1.31,4.53-0.02c0.41-0.47,0.73-1.02,1.03-1.56c2.84-5.19,5.68-10.38,8.49-15.58
		c0.42-0.78,0.79-1.61,1.09-2.45c0.7-1.91,0.72-3.85,0.12-5.8c-0.39-1.29-0.94-2.51-1.58-3.7c-2.74-5.14-5.48-10.28-8.2-15.43
		c-2.35-4.43-4.68-8.88-7.04-13.31c-0.42-0.79-0.87-1.57-1.37-2.31c-0.62-0.94-1.51-1.54-2.64-1.67c-0.98-0.11-1.96-0.21-2.94-0.22
		c-3.23-0.03-6.45-0.01-9.68-0.01c0,0,0,0,0,0c-3.14,0-6.27,0-9.41,0c-0.63,0-1.26-0.03-1.88,0.04c-0.52,0.06-1.06,0.2-1.55,0.4
		c-0.71,0.29-1.11,0.88-1.22,1.64c-0.1,0.73-0.03,1.44,0.3,2.1c0.37,0.72,0.75,1.43,1.14,2.13c9.53,17.36,19.06,34.72,28.59,52.07
		c0.43,0.79,0.84,1.58,1.29,2.36C667.06,281.4,667.36,281.86,667.71,282.26z"/>
	<path class="st0" d="M842.47,289.39c-6.91-3.27-15.86-6.8-26.84-10.57c-3-1.2-6.32-2.64-9.98-4.31
		c-6.15-2.81-10.27-4.89-12.34-6.23c-5.19-3.26-7.78-7.12-7.78-11.56c0-2.81,1.15-5.59,3.45-8.34c2.3-2.74,5.45-5.08,9.45-7.01
		c5.34-2.07,11.04-3.11,17.12-3.11c5.19,0,10.38,0.74,15.57,2.22c4.45,1.19,9.71,3.48,15.79,6.89c0.74,0.45,1.48,0.67,2.22,0.67
		c0.89,0,1.56-0.22,2-0.67l0.22-0.22c-0.04,0-0.06,0.02-0.09,0.03l2.53-3.59c4.3-6.08,6.82-9.93,7.56-11.56
		c0.15-0.29,0-0.81-0.45-1.56c-0.44-0.74-1.04-1.41-1.78-2c-4-3.41-8.31-6.3-12.9-8.67c-4.91-2.31-10.67-4.05-17.27-5.24
		c-7.48-1.67-14.47-1.97-20.79-1.45c-0.21,0.01-0.42,0.01-0.64,0.02c-0.56,0.06-1.12,0.14-1.67,0.21c-0.45,0.05-0.9,0.11-1.35,0.17
		c-0.07,0.01-0.14,0.02-0.21,0.03c-10.8,1.5-19.31,5.26-24.48,8.09c-1.11,0.6-2.17,1.22-3.2,1.88c-1.54,0.97-2.37,1.61-2.37,1.61
		l0,0c-3.74,2.72-6.88,5.87-9.42,9.45c-2.99,4.21-4.98,8.84-5.99,13.9c-0.9,3.19-1.35,6.46-1.35,9.81c0,6.97,2.07,13.72,6.23,20.24
		c3.41,4.89,8.64,9.01,15.68,12.34c6.91,3.27,15.86,6.8,26.84,10.57c3,1.2,6.32,2.64,9.98,4.31c6.15,2.81,10.27,4.89,12.34,6.23
		c5.19,3.26,7.78,7.12,7.78,11.56c0,2.81-1.15,5.59-3.45,8.34c-2.3,2.74-5.45,5.08-9.45,7.01c-5.34,2.07-11.04,3.11-17.12,3.11
		c-5.19,0-10.38-0.74-15.57-2.22c-4.45-1.19-9.71-3.48-15.79-6.89c-0.74-0.45-1.48-0.67-2.22-0.67c-0.89,0-1.56,0.22-2,0.67
		l-0.22,0.22c0.04,0,0.06-0.02,0.09-0.03l-2.53,3.59c-4.3,6.08-6.82,9.93-7.56,11.56c-0.15,0.29,0,0.81,0.45,1.56
		c0.44,0.74,1.04,1.41,1.78,2c4,3.41,8.31,6.3,12.9,8.67c5.04,2.37,10.97,4.15,17.79,5.34c6.82,1.19,13.79,1.63,20.9,1.34
		c9.79-1.04,18.46-3.75,26.02-8.12c7.56-4.37,13.46-9.82,17.68-16.35c4.23-6.53,6.34-13.42,6.34-20.68c0-6.97-2.07-13.72-6.23-20.24
		C854.74,296.84,849.52,292.73,842.47,289.39z"/>
	<path class="st0" d="M610.41,289.35c-6.91-3.27-15.86-6.8-26.84-10.57c-3-1.2-6.32-2.64-9.98-4.31
		c-6.15-2.81-10.27-4.89-12.34-6.23c-5.19-3.26-7.78-7.12-7.78-11.56c0-2.81,1.15-5.59,3.45-8.34c2.3-2.74,5.45-5.08,9.45-7.01
		c5.34-2.07,11.04-3.11,17.12-3.11c5.19,0,10.38,0.74,15.57,2.22c4.45,1.19,9.71,3.48,15.79,6.89c0.74,0.45,1.48,0.67,2.22,0.67
		c0.89,0,1.56-0.22,2-0.67l0.22-0.22c-0.04,0-0.06,0.02-0.09,0.03l2.53-3.59c4.3-6.08,6.82-9.93,7.56-11.56
		c0.15-0.29,0-0.81-0.45-1.56c-0.44-0.74-1.04-1.41-1.78-2c-4-3.41-8.31-6.3-12.9-8.67c-5.04-2.37-10.97-4.15-17.79-5.34
		c-6.82-1.19-13.79-1.63-20.9-1.34c-9.79,1.04-18.46,3.75-26.02,8.12c-7.56,4.37-13.46,9.82-17.68,16.35
		c-4.23,6.53-6.34,13.42-6.34,20.68c0,6.97,2.07,13.72,6.23,20.24c3.41,4.89,8.64,9.01,15.68,12.34c6.91,3.27,15.86,6.8,26.84,10.57
		c3,1.2,6.32,2.64,9.98,4.31c6.15,2.81,10.27,4.89,12.34,6.23c5.19,3.26,7.78,7.12,7.78,11.56c0,2.81-1.15,5.59-3.45,8.34
		c-2.3,2.74-5.45,5.08-9.45,7.01c-5.34,2.07-11.04,3.11-17.12,3.11c-5.19,0-10.38-0.74-15.57-2.22c-4.45-1.19-9.71-3.48-15.79-6.89
		c-0.74-0.45-1.48-0.67-2.22-0.67c-0.89,0-1.56,0.22-2,0.67l-0.22,0.22c0.04,0,0.06-0.02,0.09-0.03l-2.53,3.59
		c-4.3,6.08-6.82,9.93-7.56,11.56c-0.15,0.29,0,0.81,0.45,1.56c0.44,0.74,1.04,1.41,1.78,2c4,3.41,8.31,6.3,12.9,8.67
		c4.91,2.31,10.67,4.05,17.27,5.24c7.48,1.67,14.47,1.97,20.79,1.45c0.21-0.01,0.42-0.01,0.64-0.02c0.56-0.06,1.12-0.14,1.67-0.21
		c0.45-0.05,0.9-0.11,1.35-0.17c0.07-0.01,0.14-0.02,0.21-0.03c10.8-1.5,19.31-5.26,24.48-8.09c1.11-0.6,2.17-1.22,3.2-1.88
		c1.54-0.97,2.37-1.61,2.37-1.61l0,0c3.74-2.72,6.88-5.87,9.42-9.45c2.99-4.21,4.98-8.84,5.99-13.9c0.9-3.19,1.35-6.46,1.35-9.81
		c0-6.97-2.07-13.72-6.23-20.24C622.67,296.8,617.45,292.69,610.41,289.35z"/>
	<path class="st0" d="M856.4,642.37c-3.41-4.89-8.64-9.01-15.68-12.34c-6.91-3.27-15.86-6.8-26.84-10.57c-3-1.2-6.32-2.64-9.98-4.31
		c-6.15-2.81-10.27-4.89-12.34-6.23c-5.19-3.26-7.78-7.12-7.78-11.56c0-2.81,1.15-5.59,3.45-8.34c2.3-2.74,5.45-5.08,9.45-7.01
		c5.34-2.07,11.04-3.11,17.12-3.11c5.19,0,10.38,0.74,15.57,2.22c4.45,1.19,9.71,3.48,15.79,6.89c0.74,0.45,1.48,0.67,2.22,0.67
		c0.89,0,1.56-0.22,2-0.67l0.22-0.22c-0.04,0-0.06,0.02-0.09,0.03l2.53-3.59c4.3-6.08,6.82-9.93,7.56-11.56
		c0.15-0.29,0-0.81-0.45-1.56c-0.44-0.74-1.04-1.41-1.78-2c-4-3.41-8.31-6.3-12.9-8.67c-4.91-2.31-10.67-4.05-17.27-5.24
		c-7.48-1.67-14.47-1.97-20.79-1.45c-0.21,0.01-0.42,0.01-0.64,0.02c-0.56,0.06-1.12,0.14-1.67,0.21c-0.45,0.05-0.9,0.11-1.35,0.17
		c-0.07,0.01-0.14,0.02-0.21,0.03c-10.8,1.5-19.31,5.26-24.48,8.09c-1.11,0.6-2.17,1.22-3.2,1.88c-1.54,0.97-2.37,1.61-2.37,1.61
		l0,0c-3.74,2.72-6.88,5.87-9.42,9.45c-2.99,4.21-4.98,8.84-5.99,13.9c-0.9,3.19-1.35,6.46-1.35,9.81c0,6.97,2.07,13.72,6.23,20.24
		c3.41,4.89,8.64,9.01,15.68,12.34c6.91,3.27,15.86,6.8,26.84,10.57c3,1.2,6.32,2.64,9.98,4.31c6.15,2.81,10.27,4.89,12.34,6.23
		c5.19,3.26,7.78,7.12,7.78,11.56c0,2.81-1.15,5.59-3.45,8.34c-2.3,2.74-5.45,5.08-9.45,7.01c-5.34,2.07-11.04,3.11-17.12,3.11
		c-5.19,0-10.38-0.74-15.57-2.22c-4.45-1.19-9.71-3.48-15.79-6.89c-0.74-0.45-1.48-0.67-2.22-0.67c-0.89,0-1.56,0.22-2,0.67
		l-0.22,0.22c0.04,0,0.06-0.02,0.09-0.03l-2.53,3.59c-4.3,6.08-6.82,9.93-7.56,11.56c-0.15,0.29,0,0.81,0.45,1.56
		c0.44,0.74,1.04,1.41,1.78,2c4,3.41,8.31,6.3,12.9,8.67c5.04,2.37,10.97,4.15,17.79,5.34c6.82,1.19,13.79,1.63,20.9,1.34
		c9.79-1.04,18.46-3.75,26.02-8.12c7.56-4.37,13.46-9.82,17.68-16.35c4.23-6.53,6.34-13.42,6.34-20.68
		C862.62,655.64,860.55,648.89,856.4,642.37z"/>
</g>
</svg>
