<?xml version="1.0" encoding="utf-8"?>
<!-- Generator: Adobe Illustrator 27.9.0, SVG Export Plug-In . SVG Version: 6.00 Build 0)  -->
<svg version="1.1" id="Ebene_1" xmlns="http://www.w3.org/2000/svg" xmlns:xlink="http://www.w3.org/1999/xlink" x="0px" y="0px"
	 viewBox="0 0 1190.55 841.89" style="enable-background:new 0 0 1190.55 841.89;" xml:space="preserve">
<style type="text/css">
	.st0{fill:#1D1D1B;}
</style>
<g>
	<path class="st0" d="M687.91,78.56c-1.83-12.07-6.64-22.79-14.47-32.15c-5.88-7.03-12.9-12.74-20.68-17.54
		c-0.38-0.23-0.79-0.51-1.21-0.54c-0.4-0.03-0.95,0.1-1.2,0.37c-0.5,0.53-0.9,1.18-1.25,1.83c-1.96,3.67-3.89,7.37-5.85,11.05
		c-16.88,31.81-33.4,63.81-50.5,95.5c-8.13,15.06-15.97,30.27-23.94,45.42c-3.74,7.12-7.14,14.4-10.07,21.89
		c-4.18,10.71-7.37,21.68-8.83,33.12c-1.68,13.24-0.43,26.13,4.27,38.65c0.57,1.53,1.2,3.05,1.94,4.51
		c3.96,7.91,9.08,15.01,15.24,21.35c4.39,4.52,9.54,8.02,14.95,11.23c0.44-0.29,0.92-0.45,1.14-0.78c0.57-0.87,1.03-1.81,1.52-2.73
		c24.97-47.4,49.93-94.8,74.89-142.2c0.62-1.18,1.19-2.4,1.77-3.6c0.9-1.88,1.71-3.8,2.68-5.64c4.08-7.78,7.86-15.7,11.04-23.9
		c4.21-10.86,7.47-21.97,8.8-33.59C688.99,93.39,689.04,85.98,687.91,78.56z"/>
	<path class="st0" d="M552.83,150.77c1.9,2.18,5.6,2.17,7.51-0.04c0.67-0.78,1.22-1.69,1.71-2.59c4.71-8.6,9.42-17.22,14.08-25.84
		c0.7-1.3,1.3-2.67,1.81-4.06c1.16-3.17,1.19-6.38,0.2-9.63c-0.65-2.15-1.56-4.16-2.62-6.14c-4.55-8.52-9.08-17.06-13.61-25.59
		c-3.9-7.35-7.77-14.72-11.67-22.08c-0.7-1.31-1.45-2.6-2.27-3.83c-1.03-1.56-2.5-2.56-4.38-2.77c-1.62-0.19-3.25-0.35-4.88-0.36
		c-5.35-0.04-10.7-0.02-16.06-0.02c0,0,0-0.01,0-0.01c-5.2,0-10.41,0-15.61,0c-1.04,0-2.09-0.05-3.12,0.06
		c-0.87,0.1-1.75,0.33-2.56,0.66c-1.18,0.49-1.85,1.46-2.03,2.73c-0.17,1.2-0.06,2.38,0.5,3.48c0.61,1.19,1.24,2.37,1.89,3.54
		c15.81,28.8,31.62,57.59,47.43,86.39c0.72,1.3,1.4,2.63,2.15,3.91C551.76,149.34,552.25,150.1,552.83,150.77z"/>
</g>
<g>
	<path class="st0" d="M655.53,355.68c-4.8-5.73-10.51-10.38-16.86-14.29c-0.31-0.19-0.65-0.41-0.98-0.44
		c-0.32-0.03-0.77,0.08-0.98,0.3c-0.41,0.43-0.73,0.96-1.02,1.49c-1.6,2.99-3.17,6-4.77,9c-13.75,25.93-27.22,52-41.15,77.83
		c-6.62,12.27-13.02,24.67-19.51,37.01c-3.05,5.8-5.82,11.73-8.21,17.84c-3.41,8.73-6.01,17.67-7.19,27
		c-1.37,10.79-0.35,21.3,3.48,31.5c0.47,1.25,0.98,2.48,1.58,3.67c3.23,6.45,7.4,12.23,12.42,17.4c3.58,3.69,7.77,6.54,12.18,9.15
		c0.36-0.24,0.75-0.37,0.93-0.64c0.46-0.71,0.84-1.47,1.24-2.22c20.35-38.63,40.69-77.26,61.03-115.89
		c0.51-0.96,0.97-1.95,1.44-2.94c0.73-1.53,1.4-3.1,2.18-4.6c3.33-6.34,6.41-12.8,8.99-19.48c3.43-8.85,6.09-17.91,7.17-27.37
		c0.69-6.05,0.73-12.09-0.19-18.14C665.84,372.04,661.91,363.3,655.53,355.68z"/>
	<path class="st0" d="M557.24,440.72c1.55,1.78,4.57,1.77,6.12-0.03c0.55-0.63,0.99-1.37,1.4-2.11c3.84-7.01,7.67-14.03,11.48-21.06
		c0.57-1.06,1.06-2.18,1.48-3.31c0.94-2.59,0.97-5.2,0.16-7.85c-0.53-1.75-1.27-3.39-2.13-5c-3.71-6.95-7.4-13.9-11.09-20.86
		c-3.18-5.99-6.33-12-9.51-17.99c-0.57-1.07-1.18-2.12-1.85-3.12c-0.84-1.27-2.04-2.08-3.57-2.26c-1.32-0.15-2.65-0.28-3.98-0.29
		c-4.36-0.04-8.72-0.01-13.09-0.01c0,0,0,0,0-0.01c-4.24,0-8.48,0-12.72,0c-0.85,0-1.7-0.04-2.54,0.05
		c-0.71,0.08-1.43,0.27-2.09,0.54c-0.96,0.4-1.5,1.19-1.65,2.22c-0.14,0.98-0.05,1.94,0.41,2.83c0.49,0.97,1.01,1.93,1.54,2.89
		c12.88,23.47,25.77,46.94,38.66,70.4c0.58,1.06,1.14,2.14,1.75,3.18C556.37,439.56,556.77,440.18,557.24,440.72z"/>
	<path class="st0" d="M814.73,467.05c-4.61-6.61-11.68-12.18-21.2-16.69c-9.34-4.42-21.44-9.19-36.29-14.29
		c-4.06-1.63-8.55-3.56-13.49-5.83c-8.32-3.81-13.88-6.61-16.69-8.42c-7.02-4.41-10.52-9.62-10.52-15.63
		c0-3.81,1.55-7.56,4.66-11.28c3.11-3.71,7.37-6.86,12.78-9.47c7.22-2.8,14.93-4.21,23.15-4.21c7.01,0,14.03,1,21.05,3.01
		c6.01,1.61,13.13,4.71,21.35,9.32c1,0.6,2,0.9,3.01,0.9c1.2,0,2.1-0.3,2.71-0.9l0.3-0.3c-0.05,0-0.08,0.03-0.12,0.04l3.43-4.85
		c5.81-8.22,9.22-13.43,10.22-15.64c0.2-0.4,0-1.1-0.6-2.1c-0.6-1-1.41-1.9-2.4-2.71c-5.41-4.61-11.23-8.52-17.44-11.73
		c-6.64-3.12-14.43-5.48-23.34-7.08c-10.12-2.26-19.57-2.67-28.11-1.96c-0.29,0.01-0.57,0.01-0.86,0.02
		c-0.76,0.08-1.51,0.19-2.26,0.29c-0.61,0.07-1.22,0.15-1.82,0.23c-0.09,0.01-0.19,0.02-0.28,0.04
		c-14.6,2.03-26.11,7.11-33.09,10.94c-1.5,0.81-2.94,1.66-4.33,2.54c-2.08,1.32-3.2,2.17-3.2,2.17l0,0
		c-5.05,3.67-9.3,7.93-12.73,12.78c-4.04,5.69-6.73,11.96-8.1,18.79c-1.21,4.31-1.83,8.73-1.83,13.26c0,9.42,2.8,18.54,8.42,27.36
		c4.61,6.61,11.68,12.18,21.2,16.69c9.34,4.42,21.44,9.19,36.29,14.29c4.06,1.63,8.55,3.56,13.49,5.83
		c8.32,3.81,13.88,6.61,16.69,8.42c7.02,4.41,10.52,9.62,10.52,15.63c0,3.81-1.55,7.56-4.66,11.28c-3.11,3.71-7.37,6.86-12.78,9.47
		c-7.22,2.8-14.93,4.21-23.15,4.21c-7.01,0-14.03-1-21.05-3.01c-6.01-1.61-13.13-4.71-21.35-9.32c-1-0.6-2-0.9-3.01-0.9
		c-1.2,0-2.1,0.3-2.71,0.9l-0.3,0.3c0.05,0,0.08-0.03,0.12-0.04l-3.43,4.85c-5.81,8.22-9.22,13.43-10.22,15.64
		c-0.2,0.4,0,1.1,0.6,2.1c0.6,1,1.4,1.9,2.4,2.71c5.41,4.61,11.23,8.52,17.44,11.73c6.82,3.2,14.84,5.61,24.05,7.22
		c9.22,1.6,18.64,2.2,28.26,1.81c13.23-1.4,24.96-5.06,35.18-10.98c10.22-5.91,18.19-13.28,23.9-22.1
		c5.71-8.82,8.57-18.14,8.57-27.96C823.15,484.99,820.34,475.87,814.73,467.05z"/>
	<path class="st0" d="M479.76,450.31c-9.34-4.42-21.44-9.19-36.29-14.29c-4.06-1.63-8.55-3.56-13.49-5.83
		c-8.32-3.81-13.88-6.61-16.69-8.42c-7.02-4.41-10.52-9.62-10.52-15.63c0-3.81,1.55-7.56,4.66-11.28c3.11-3.71,7.37-6.86,12.78-9.47
		c7.22-2.8,14.93-4.21,23.15-4.21c7.01,0,14.03,1,21.05,3.01c6.01,1.61,13.13,4.71,21.35,9.32c1,0.6,2,0.9,3.01,0.9
		c1.2,0,2.1-0.3,2.71-0.9l0.3-0.3c-0.05,0-0.08,0.03-0.12,0.04l3.43-4.85c5.81-8.22,9.22-13.43,10.22-15.64c0.2-0.4,0-1.1-0.6-2.1
		c-0.6-1-1.4-1.9-2.4-2.71c-5.41-4.61-11.23-8.52-17.44-11.73c-6.82-3.2-14.84-5.61-24.05-7.22c-9.22-1.6-18.64-2.2-28.26-1.81
		c-13.23,1.4-24.96,5.06-35.18,10.98c-10.22,5.91-18.19,13.28-23.9,22.1c-5.71,8.82-8.57,18.14-8.57,27.96
		c0,9.42,2.8,18.54,8.42,27.36c4.61,6.61,11.68,12.18,21.2,16.69c9.34,4.42,21.44,9.19,36.29,14.29c4.06,1.63,8.55,3.56,13.49,5.83
		c8.32,3.81,13.88,6.61,16.69,8.42c7.02,4.41,10.52,9.62,10.52,15.63c0,3.81-1.55,7.56-4.66,11.28c-3.11,3.71-7.37,6.86-12.78,9.47
		c-7.22,2.8-14.93,4.21-23.15,4.21c-7.01,0-14.03-1-21.05-3.01c-6.01-1.61-13.13-4.71-21.35-9.32c-1-0.6-2-0.9-3.01-0.9
		c-1.2,0-2.1,0.3-2.71,0.9l-0.3,0.3c0.05,0,0.08-0.03,0.12-0.04l-3.43,4.85c-5.81,8.22-9.22,13.43-10.22,15.64
		c-0.2,0.4,0,1.1,0.6,2.1c0.6,1,1.41,1.9,2.4,2.71c5.41,4.61,11.23,8.52,17.44,11.73c6.64,3.12,14.43,5.48,23.34,7.08
		c10.12,2.26,19.57,2.67,28.11,1.96c0.29-0.01,0.57-0.01,0.86-0.02c0.76-0.08,1.51-0.19,2.26-0.29c0.61-0.07,1.22-0.15,1.82-0.23
		c0.09-0.01,0.19-0.02,0.28-0.04c14.6-2.03,26.11-7.11,33.09-10.94c1.5-0.81,2.94-1.66,4.33-2.54c2.08-1.32,3.2-2.17,3.2-2.17l0,0
		c5.05-3.67,9.3-7.93,12.73-12.78c4.04-5.69,6.73-11.96,8.1-18.79c1.21-4.31,1.83-8.73,1.83-13.26c0-9.42-2.8-18.54-8.42-27.36
		C496.35,460.38,489.29,454.82,479.76,450.31z"/>
</g>
<g>
	<path class="st0" d="M446.31,586.02H309.02c-1.38,0-2.62,0.5-3.7,1.48c-1.09,0.99-1.63,2.27-1.63,3.85v25.44
		c0,1.58,0.54,2.91,1.63,3.99c1.08,1.09,2.32,1.63,3.7,1.63h137.29c1.58,0,2.91-0.59,3.99-1.77c1.08-1.18,1.63-2.46,1.63-3.85
		v-25.44c0-1.38-0.55-2.61-1.63-3.7C449.22,586.57,447.88,586.02,446.31,586.02z"/>
	<path class="st0" d="M891.97,710.33c-0.2-0.79-0.3-1.79-0.3-2.98c0-1.19,0.6-2.18,1.79-2.98c8.13-6.15,14.53-13.79,19.2-22.92
		c4.66-9.13,6.99-18.85,6.99-29.17c0-12.1-3.03-23.22-9.08-33.34c-6.06-10.12-14.24-18.16-24.56-24.11
		c-10.32-5.95-21.63-8.93-33.94-8.93h-61.62c-1.59,0-2.93,0.55-4.02,1.64c-1.09,1.09-1.64,2.43-1.64,4.02v47.93
		c0,1.99,0.74,3.72,2.23,5.21c1.49,1.49,3.22,2.23,5.21,2.23h19.65c2.18,0,3.97-0.74,5.36-2.23c1.39-1.49,2.08-3.22,2.08-5.21v-7.44
		c0-1.98,0.74-3.72,2.23-5.21c1.49-1.49,3.32-2.23,5.51-2.23h25c7.94,0,14.63,2.68,20.09,8.04c5.46,5.36,8.19,11.91,8.19,19.65
		c0,7.54-2.73,13.99-8.19,19.35c-5.46,5.36-12.16,8.04-20.09,8.04h-61.62c-1.59,0-2.93,0.55-4.02,1.64
		c-1.09,1.09-1.64,2.43-1.64,4.02v103.89c0,1.59,0.54,2.88,1.64,3.87c1.09,1,2.43,1.49,4.02,1.49h23.22c1.59,0,2.93-0.49,4.02-1.49
		c1.09-0.99,1.64-2.28,1.64-3.87v-65.49c0-2.18,0.64-3.62,1.93-4.32c1.29-0.69,3.13-1.04,5.51-1.04h25.3c2.98,0,4.96,0.2,5.95,0.6
		c0.99,0.4,1.79,1.19,2.38,2.38l30.96,69.66c0.79,1.59,1.73,2.58,2.83,2.98c1.09,0.4,2.73,0.59,4.91,0.59h24.41
		c2.78,0,4.17-1.09,4.17-3.27c0-1.19-0.4-2.48-1.19-3.87L891.97,710.33z"/>
	<path class="st0" d="M629.86,622.32h138.2c1.59,0,2.93-0.6,4.02-1.79c1.09-1.19,1.64-2.48,1.64-3.87v-25.61
		c0-1.39-0.55-2.63-1.64-3.72c-1.09-1.09-2.43-1.64-4.02-1.64h-138.2c-1.39,0-2.63,0.5-3.72,1.49c-1.09,1-1.64,2.29-1.64,3.87v25.61
		c0,1.59,0.54,2.93,1.64,4.02C627.22,621.78,628.46,622.32,629.86,622.32z"/>
	<path class="st0" d="M768.66,757.84H666.2c-1.39,0-2.68-0.6-3.87-1.79c-1.19-1.19-1.79-2.48-1.79-3.87v-32.47
		c0-4.17,2.28-6.25,6.85-6.25h75.95c1.39,0,2.58-0.45,3.57-1.34c0.99-0.89,1.49-2.03,1.49-3.43v-25.61c0-1.39-0.5-2.53-1.49-3.43
		c-1-0.89-2.19-1.34-3.57-1.34h-75.06c-5.17,0-7.75-1.88-7.75-5.66v-21.44c0-1.59-0.5-2.88-1.49-3.87c-1-0.99-2.29-1.49-3.87-1.49
		h-25.32c-1.39,0-2.63,0.5-3.72,1.49c-1.09,1-1.64,2.29-1.64,3.87v137.61c0,1.39,0.54,2.64,1.64,3.72c1.09,1.09,2.33,1.64,3.72,1.64
		h138.8c1.59,0,2.88-0.54,3.87-1.64c0.99-1.09,1.49-2.33,1.49-3.72v-25.61c0-1.59-0.5-2.88-1.49-3.87
		C771.53,758.34,770.24,757.84,768.66,757.84z"/>
	<path class="st0" d="M286,586.97h-29.62c-1.38,0-2.67,0.55-3.85,1.63c-1.18,1.09-1.78,2.42-1.78,4v196.67
		c0,1.38,0.54,2.62,1.63,3.7c1.08,1.09,2.42,1.63,4,1.63H286c1.58,0,2.86-0.54,3.85-1.63c0.99-1.08,1.48-2.32,1.48-3.7V592.6
		c0-1.58-0.55-2.91-1.63-4C288.61,587.52,287.38,586.97,286,586.97z"/>
	<path class="st0" d="M427.91,640.04h-86.44c-2.3,0.36-7.4,1.76-8.43,7.06v31.87c0.03,0.27,0.06,0.55,0.06,0.84v27.71h-0.06v82.01
		c0,1.32,0.52,2.49,1.55,3.53c1.03,1.04,2.3,1.55,3.81,1.55h28.2c1.5,0,2.72-0.52,3.67-1.55c0.94-1.03,1.41-2.21,1.41-3.53v-73.06
		h0.04v-36.67c0-1.66,0.62-3.13,1.86-4.42c1.24-1.29,2.75-1.93,4.53-1.93h49.8c0.89,0,1.69-0.37,2.4-1.1
		c0.71-0.73,1.06-1.66,1.06-2.76V643.9c0-1.1-0.36-2.02-1.06-2.76C429.6,640.41,428.8,640.04,427.91,640.04z"/>
	<path class="st0" d="M231.29,757.04H162.1c-1.53,0-2.86-0.64-4-1.92c-1.14-1.28-1.72-2.71-1.72-4.29V593.45
		c0-1.58-0.57-3-1.72-4.29c-1.14-1.28-2.57-1.92-4.29-1.92H119.5c-1.53,0-2.91,0.64-4.15,1.92c-1.24,1.28-1.86,2.71-1.86,4.29
		v194.94c0,1.77,0.62,3.25,1.86,4.44c1.24,1.18,2.62,1.77,4.15,1.77h111.79c1.72,0,3.15-0.59,4.29-1.77
		c1.14-1.18,1.72-2.66,1.72-4.44v-25.44c0-1.58-0.57-2.96-1.72-4.14C234.43,757.63,233,757.04,231.29,757.04z"/>
	<path class="st0" d="M606.75,586.02H469.46c-1.38,0-2.62,0.5-3.7,1.48c-1.09,0.99-1.63,2.27-1.63,3.85v25.44
		c0,1.58,0.54,2.91,1.63,4c1.08,1.09,2.32,1.63,3.7,1.63h19.24c1.78,0.1,3.31,0.73,4.59,1.91c1.39,1.29,2.08,2.93,2.08,4.91V790.5
		c0,2.58,1.29,3.87,3.87,3.87h35.4c0.99,0,1.88-0.34,2.68-1.04c0.79-0.69,1.19-1.64,1.19-2.83V629.24c0-1.78,0.69-3.37,2.08-4.76
		c1.28-1.28,2.83-1.97,4.62-2.06h61.54c1.58,0,2.91-0.59,3.99-1.78c1.08-1.18,1.63-2.46,1.63-3.85v-25.44c0-1.38-0.54-2.61-1.63-3.7
		C609.66,586.57,608.33,586.02,606.75,586.02z"/>
	<path class="st0" d="M1066.12,706.02c-4.61-6.61-11.68-12.18-21.2-16.69c-9.34-4.42-21.44-9.19-36.29-14.29
		c-4.06-1.63-8.55-3.56-13.49-5.83c-8.32-3.81-13.88-6.61-16.69-8.42c-7.02-4.41-10.52-9.62-10.52-15.63
		c0-3.81,1.55-7.56,4.66-11.28c3.11-3.71,7.37-6.86,12.78-9.47c7.22-2.8,14.93-4.21,23.15-4.21c7.01,0,14.03,1,21.05,3.01
		c6.01,1.61,13.13,4.71,21.35,9.32c1,0.6,2,0.9,3.01,0.9c1.2,0,2.1-0.3,2.71-0.9l0.3-0.3c-0.05,0-0.08,0.03-0.12,0.04l3.43-4.85
		c5.81-8.22,9.22-13.43,10.22-15.64c0.2-0.4,0-1.1-0.6-2.1c-0.6-1-1.41-1.9-2.4-2.71c-5.41-4.61-11.23-8.52-17.44-11.73
		c-6.64-3.12-14.43-5.48-23.34-7.08c-10.12-2.26-19.57-2.67-28.11-1.96c-0.29,0.01-0.57,0.01-0.86,0.02
		c-0.76,0.08-1.51,0.19-2.26,0.29c-0.61,0.07-1.22,0.15-1.82,0.23c-0.09,0.01-0.19,0.02-0.28,0.04
		c-14.6,2.03-26.11,7.11-33.09,10.94c-1.5,0.81-2.94,1.66-4.33,2.54c-2.08,1.32-3.2,2.17-3.2,2.17l0,0
		c-5.05,3.67-9.3,7.93-12.73,12.78c-4.04,5.69-6.73,11.96-8.1,18.79c-1.21,4.31-1.83,8.73-1.83,13.26c0,9.42,2.8,18.54,8.42,27.36
		c4.61,6.61,11.68,12.18,21.2,16.69c9.34,4.42,21.44,9.19,36.29,14.29c4.06,1.63,8.55,3.56,13.49,5.83
		c8.32,3.81,13.88,6.61,16.69,8.42c7.02,4.41,10.52,9.62,10.52,15.63c0,3.81-1.55,7.56-4.66,11.28c-3.11,3.71-7.37,6.86-12.78,9.47
		c-7.22,2.8-14.93,4.21-23.15,4.21c-7.01,0-14.03-1-21.05-3.01c-6.01-1.61-13.13-4.71-21.35-9.32c-1-0.6-2-0.9-3.01-0.9
		c-1.2,0-2.1,0.3-2.71,0.9l-0.3,0.3c0.05,0,0.08-0.03,0.12-0.04l-3.43,4.85c-5.81,8.22-9.22,13.43-10.22,15.64
		c-0.2,0.4,0,1.1,0.6,2.1c0.6,1,1.4,1.9,2.4,2.71c5.41,4.61,11.23,8.52,17.44,11.73c6.82,3.2,14.84,5.61,24.05,7.22
		c9.22,1.6,18.64,2.2,28.26,1.81c13.23-1.41,24.96-5.06,35.18-10.98c10.22-5.91,18.19-13.28,23.9-22.1
		c5.71-8.82,8.57-18.14,8.57-27.96C1074.54,723.96,1071.74,714.84,1066.12,706.02z"/>
</g>
</svg>
