<?xml version="1.0" encoding="UTF-8" standalone="no"?>
<svg xmlns:svg="http://www.w3.org/2000/svg" xmlns="http://www.w3.org/2000/svg" version="1.1" width="461.76376" height="122.1289" id="svg8825">
  <defs id="defs8827"/>
  <g transform="translate(-119.11812,-471.29773)" id="layer1" style="fill:#d93921;fill-opacity:1">
    <path d="m 171.73897,546.66681 c 12.56249,0 22.74559,-10.18309 22.74559,-22.74559 0,-12.56249 -10.1831,-22.74853 -22.74559,-22.74853 -12.56248,0 -22.74558,10.18604 -22.74558,22.74853 0,12.5625 10.1831,22.74559 22.74558,22.74559" id="path3450" style="fill:#ffffff;fill-opacity:1;fill-rule:nonzero;stroke:none"/>
    <path d="m 539.53428,512.64826 c 0,-3.58087 2.51781,-4.11093 7.95684,-4.11093 7.16468,0 16.44961,0.66553 21.22313,1.19559 l 3.44835,-9.95341 c -5.70407,-0.5919 -12.99538,-1.05718 -24.53603,-1.05718 -23.47884,0 -30.37259,3.18038 -30.37259,13.72863 0,10.67782 3.18038,12.46531 25.33111,16.04912 10.6101,1.72271 10.74262,2.31755 10.74262,5.89843 0,4.51436 -1.71978,4.90602 -10.61009,4.90602 -8.88739,0 -21.3586,-0.98945 -23.07835,-1.1897 l -2.65621,9.81206 c 4.64688,0.40344 11.5436,0.9335 25.46952,0.9335 27.32474,0 33.4293,-3.25106 33.4293,-14.65625 0,-10.48051 -2.39117,-12.67143 -24.804,-16.04912 -10.61305,-1.59313 -11.54359,-1.99363 -11.54359,-5.50676 m -28.79125,19.55343 0,-32.81383 -21.48816,0 0,33.01407 c 0,6.36959 -2.25276,7.36494 -9.94456,7.36494 -7.69475,0 -10.21255,-1.1308 -10.21255,-7.49156 l 0,-32.88745 -22.81626,0 0,32.9493 c 0,14.52666 5.83363,17.77477 32.76377,17.77477 26.79469,0 31.69776,-3.58382 31.69776,-17.91024 m -67.24143,15.99612 -16.31121,-17.57748 c 10.74556,-2.32049 12.86875,-7.62701 12.86875,-14.59145 0,-11.79979 -7.03805,-16.64102 -25.20743,-16.64102 l -36.07372,0 0,48.80995 22.41576,0 0,-14.72397 5.03855,0 13.6609,14.72397 23.6084,0 z m -25.5932,-32.10119 c 0,5.83657 -1.99363,7.89499 -6.37253,7.89499 l -10.34212,0 0,-14.989 10.08004,0 c 4.37301,0 6.63461,1.26331 6.63461,7.09401 m -40.33484,48.98075 c -5.37425,0 -8.61646,3.91657 -8.61646,8.54874 0,4.62626 3.24221,8.57817 8.61646,8.57817 5.40664,0 8.64886,-3.95191 8.64886,-8.57817 0,-4.63217 -3.24222,-8.54874 -8.64886,-8.54874 m 4.19044,8.54874 c 0,2.56786 -1.49006,4.76467 -4.19044,4.76467 -2.67092,0 -4.15805,-2.19681 -4.15805,-4.76467 0,-2.53548 1.48713,-4.73524 4.15805,-4.73524 2.70038,0 4.19044,2.19976 4.19044,4.73524 m -28.85898,-25.4283 23.07835,0 -22.41577,-48.94542 -22.55123,0 -19.91858,43.50049 -20.80497,-24.99835 24.40645,-18.36667 -22.2862,0 -19.09993,14.38826 0,-14.38826 -22.41577,0 0,48.80995 22.41577,0 0,-17.70999 2.25571,-1.65498 16.1787,19.36497 38.60919,0 1.85522,-5.43903 18.70533,0 1.98773,5.43903 z m -5.17695,-14.92422 -12.20027,0 6.10455,-18.90262 6.09572,18.90262 z m -102.03415,31.80378 c -4.93253,0 -8.44567,3.8135 -8.44567,8.54874 0,5.23583 3.75167,8.57817 8.71659,8.57817 2.53252,0 5.10333,-0.77448 6.72297,-2.2616 l -1.9259,-2.83878 c -1.0454,1.01007 -2.9389,1.58724 -4.32296,1.58724 -2.77105,0 -4.39658,-1.65497 -4.69694,-3.64565 l 12.1296,0 0,-1.01595 c 0,-5.30652 -3.27755,-8.95217 -8.17769,-8.95217 m 4.05498,6.99094 -8.04223,0 c 0.17079,-1.61964 1.31632,-3.4778 3.98725,-3.4778 2.83878,0 3.91952,1.9259 4.05498,3.4778 m -30.82315,-23.8705 22.81626,0 0,-48.80995 -22.81626,0 0,22.78386 -13.6933,0 0,3.55142 13.6933,0 0,22.47467 z m -25.13971,-2.23804 c 5.22112,-5.21818 8.39561,-12.10605 9.00519,-19.40914 l -5.4891,0 c -0.59485,5.8513 -3.18922,11.34629 -7.38554,15.54263 -4.19634,4.19927 -9.69426,6.78775 -15.54558,7.38553 l 0,5.49499 c 7.30309,-0.61251 14.19097,-3.78995 19.41503,-9.01401 m 3.51609,-24.61259 5.4891,0 c -0.60958,-7.30308 -3.78407,-14.19391 -9.00519,-19.41207 -5.22406,-5.22408 -12.11194,-8.4015 -19.41503,-9.01403 l 0,5.49499 c 5.85132,0.5978 11.34924,3.18628 15.54558,7.38555 4.19632,4.19633 6.79069,9.6972 7.38554,15.54556 m -27.30708,-30.86143 3.54848,0 0,-14.18802 -3.54848,0 0,14.18802 z m -16.37305,15.31587 c 4.19634,-4.19927 9.69426,-6.78775 15.54556,-7.38555 l 0,-5.49499 c -7.30602,0.61253 -14.1939,3.78995 -19.41207,9.01403 -5.22406,5.21816 -8.39855,12.10899 -9.01401,19.41207 l 5.49498,0 c 0.59779,-5.84836 3.18922,-11.34923 7.38554,-15.54556 m -29.50389,19.92153 14.18802,0 0,-3.54848 -14.18802,0 0,3.54848 z m 22.11835,0.82748 -5.49498,0 c 0.61546,7.30309 3.78995,14.19097 9.01401,19.40914 5.22406,5.22406 12.10605,8.4015 19.41207,9.01401 l 0,-5.49499 c -5.8513,-0.59778 -11.34922,-3.18626 -15.54556,-7.38553 -4.19632,-4.19634 -6.78775,-9.69133 -7.38554,-15.54263 m 25.54903,20.98755 c 13.03955,0 23.60841,-10.56592 23.60841,-23.60841 0,-13.03955 -10.56886,-23.60841 -23.60841,-23.60841 -13.0366,0 -23.60841,10.56886 -23.60841,23.60841 0,13.04249 10.57181,23.60841 23.60841,23.60841 m 0.0382,-1.3016 c -2.4324,0 -4.76763,-0.40344 -6.9615,-1.12197 l 0,-14.3058 -14.27341,0 c -0.7097,-2.17915 -1.1043,-4.4967 -1.1043,-6.91144 0,-2.45301 0.41227,-4.80885 1.14258,-7.01744 l 14.23513,0 0,-14.1998 c 2.19387,-0.71852 4.5291,-1.12196 6.9615,-1.12196 2.43534,0 4.77351,0.40344 6.96444,1.12491 l 0,14.19685 14.23218,0 c 0.73325,2.20859 1.14258,4.56443 1.14258,7.01744 0,2.41474 -0.3946,4.73229 -1.1043,6.91144 l -14.27046,0 0,14.30286 c -2.19093,0.72148 -4.5291,1.12491 -6.96444,1.12491 m 1.71681,11.17254 -3.54847,0 0,14.19391 3.54847,0 0,-14.19391 z m 48.67449,19.15295 -1.8611,3.1097 c 1.7227,1.58724 4.45841,2.53251 7.30013,2.53251 4.52615,0 7.09106,-2.19386 7.09106,-5.20345 0,-6.5875 -9.6972,-4.56147 -9.6972,-6.96148 0,-0.90994 1.01595,-1.5843 2.56787,-1.5843 1.99656,0 3.85179,0.8746 4.8324,1.89056 l 1.7227,-3.04198 c -1.62258,-1.28392 -3.81645,-2.22626 -6.5551,-2.22626 -4.32591,0 -6.69057,2.4 -6.69057,5.12983 0,6.42554 9.66186,4.22872 9.66186,6.89671 0,1.01006 -0.87165,1.72565 -2.73277,1.72565 -2.02896,0 -4.42602,-1.11903 -5.63928,-2.26749 m 34.12132,-2.93596 c 0,5.0297 3.6486,8.57817 8.65181,8.57817 3.3453,0 5.3713,-1.48711 6.45499,-2.97129 l -2.80934,-2.63558 c -0.77446,1.11312 -1.95533,1.79337 -3.44246,1.79337 -2.6032,0 -4.42602,-1.93179 -4.42602,-4.76467 0,-2.83879 1.82282,-4.73524 4.42602,-4.73524 1.48712,0 2.668,0.60664 3.44246,1.75805 l 2.80934,-2.63559 c -1.08369,-1.48712 -3.10969,-2.93596 -6.45499,-2.93596 -5.00321,0 -8.65181,3.54259 -8.65181,8.54874 m 22.43639,-8.1453 -4.29056,0 0,11.5907 c 0,3.17743 1.69031,5.13277 5.27117,5.13277 2.67094,0 4.62922,-1.25152 5.7453,-2.46479 l 0,2.06137 4.28762,0 0,-16.32005 -4.28762,0 0,11.04886 c -0.74209,0.94527 -2.05841,1.86111 -3.71927,1.86111 -1.82283,0 -3.00664,-0.74504 -3.00664,-3.00957 l 0,-9.9004 z m 19.15882,0 -4.29056,0 0,16.32005 4.29056,0 0,-10.7809 c 0.7097,-1.0454 2.60027,-1.85816 4.01965,-1.85816 0.50945,0 0.87755,0.0354 1.1838,0.10312 l 0,-4.1875 c -2.02601,0 -4.01668,1.17791 -5.20345,2.59731 l 0,-2.19387 z m 7.06163,-4.3259 c 0,1.41939 1.14846,2.56785 2.53546,2.56785 1.41939,0 2.56786,-1.14846 2.56786,-2.56785 0,-1.4194 -1.14847,-2.53253 -2.56786,-2.53253 -1.387,0 -2.53546,1.11313 -2.53546,2.53253 m 4.694,4.3259 -4.29057,0 0,16.32005 4.29057,0 0,-16.32005 z m 5.53326,0 -2.70333,0 0,3.75166 2.70333,0 0,8.47806 c 0,2.94185 1.58725,4.49375 4.59387,4.49375 1.7875,0 2.94185,-0.46821 3.58088,-1.0454 l -0.90994,-3.2805 c -0.23854,0.27093 -0.8481,0.5124 -1.48712,0.5124 -0.94823,0 -1.49007,-0.77742 -1.49007,-1.82871 l 0,-7.3296 3.31584,0 0,-3.75166 -3.31584,0 0,-4.46431 -4.28762,0 0,4.46431 z m 9.0523,0 6.62579,16.52617 -0.60958,1.4194 c -0.40932,0.87165 -1.14847,1.17791 -2.2616,1.17791 -0.40932,0 -0.98062,-0.10312 -1.35461,-0.27092 l -0.60662,3.82235 c 0.5065,0.1649 1.61963,0.27091 2.09375,0.27091 2.80343,-0.0736 4.96786,-0.88049 6.18406,-3.95485 l 7.67119,-18.99097 -4.59682,0 -4.29057,11.34923 -4.25816,-11.34923 -4.59683,0 z m 29.40965,11.08126 -1.85816,3.1097 c 1.7227,1.58724 4.46136,2.53251 7.2972,2.53251 4.52908,0 7.09695,-2.19386 7.09695,-5.20345 0,-6.5875 -9.69427,-4.56147 -9.69427,-6.96148 0,-0.90994 1.01598,-1.5843 2.56492,-1.5843 1.99362,0 3.8518,0.8746 4.83241,1.89056 l 1.72565,-3.04198 c -1.62259,-1.28392 -3.8194,-2.22626 -6.55806,-2.22626 -4.32295,0 -6.68763,2.4 -6.68763,5.12983 0,6.42554 9.66188,4.22872 9.66188,6.89671 0,1.01006 -0.8805,1.72565 -2.73572,1.72565 -2.02896,0 -4.42897,-1.11903 -5.64517,-2.26749 m 37.37237,-11.08126 -2.70626,0 0,3.75166 2.70626,0 0,12.56839 4.29057,0 0,-12.56839 3.3129,0 0,-3.75166 -3.3129,0 0,-0.67436 c 0,-1.59019 0.80982,-2.37057 2.02602,-2.37057 0.77448,0 1.3546,0.23854 1.79044,0.64198 l 1.61964,-2.59731 c -0.97474,-1.11903 -2.66504,-1.5578 -4.25229,-1.5578 -3.2805,0 -5.47438,2.19682 -5.47438,5.8837 l 0,0.67436 z m 11.97059,0 -2.70626,0 0,3.75166 2.70626,0 0,8.47806 c 0,2.94185 1.5843,4.49375 4.59094,4.49375 1.79337,0 2.94185,-0.46821 3.58381,-1.0454 l -0.91289,-3.2805 c -0.23558,0.27093 -0.84515,0.5124 -1.48712,0.5124 -0.94528,0 -1.48418,-0.77742 -1.48418,-1.82871 l 0,-7.3296 3.3129,0 0,-3.75166 -3.3129,0 0,-4.46431 -4.29056,0 0,4.46431 z m 13.71685,0 -4.45841,0 4.96197,16.32005 4.59683,0 3.44835,-11.1166 3.44541,11.1166 4.59683,0 4.96491,-16.32005 -4.4967,0 -3.03608,10.97818 -3.58087,-10.97818 -3.8194,0 -3.58085,10.97818 -3.04199,-10.97818 z m 22.8781,11.31683 c 0,3.6486 3.03904,5.40664 5.64223,5.40664 2.12615,0 4.05498,-0.77447 5.16811,-2.12907 l 0,1.72565 4.32592,0 0,-10.54531 c 0,-4.694 -3.41596,-6.17818 -7.16469,-6.17818 -2.56786,0 -5.13572,0.77448 -7.12935,2.56786 l 1.69032,3.00369 c 1.3487,-1.25154 2.97424,-1.9259 4.694,-1.9259 2.16442,0 3.58381,1.08074 3.58381,2.73866 l 0,2.06135 c -1.08367,-1.28687 -2.97129,-1.99067 -5.16811,-1.99067 -2.60319,0 -5.64223,1.4135 -5.64223,5.26528 m 4.29058,0.0706 c 0,-1.5519 1.38405,-2.46774 3.07436,-2.46774 1.38405,0 2.73571,0.50652 3.4454,1.45473 l 0,2.02307 c -0.70969,0.95118 -2.06135,1.4194 -3.4454,1.4194 -1.69031,0 -3.07436,-0.87755 -3.07436,-2.42946 m 18.7171,-11.38751 -4.29057,0 0,16.32005 4.29057,0 0,-10.7809 c 0.7097,-1.0454 2.6032,-1.85816 4.02258,-1.85816 0.50652,0 0.87756,0.0354 1.18087,0.10312 l 0,-4.1875 c -2.02897,0 -4.01964,1.17791 -5.20345,2.59731 l 0,-2.19387 z m 7.0469,8.1453 c 0,5.23583 3.75166,8.57817 8.71952,8.57817 2.53548,0 5.09744,-0.77447 6.72296,-2.2616 l -1.92588,-2.83877 c -1.0454,1.01006 -2.93597,1.58723 -4.3259,1.58723 -2.76812,0 -4.39069,-1.65497 -4.69695,-3.64564 l 12.1296,0 0,-1.01595 c 0,-5.30653 -3.27461,-8.95218 -8.17769,-8.95218 -4.93252,0 -8.44566,3.8135 -8.44566,8.54874 m 4.46136,-1.5578 c 0.16785,-1.61964 1.31926,-3.4778 3.9843,-3.4778 2.83879,0 3.92246,1.9259 4.05499,3.4778 l -8.03929,0 z" id="path3510" style="fill:#d93921;fill-opacity:1;fill-rule:nonzero;stroke:none"/>
  </g>
</svg>