<?xml version="1.0" encoding="utf-8"?>
<!-- Generator: Adobe Illustrator 27.9.0, SVG Export Plug-In . SVG Version: 6.00 Build 0)  -->
<svg version="1.1" id="Ebene_1" xmlns="http://www.w3.org/2000/svg" xmlns:xlink="http://www.w3.org/1999/xlink" x="0px" y="0px"
	 viewBox="0 0 1190.55 841.89" style="enable-background:new 0 0 1190.55 841.89;" xml:space="preserve">
<style type="text/css">
	.st0{fill:#1D1D1B;}
</style>
<g>
	<path class="st0" d="M993.2,372.37c-0.15-0.59-0.22-1.32-0.22-2.2c0-0.88,0.44-1.61,1.32-2.2c6.02-4.55,10.75-10.2,14.2-16.95
		c3.45-6.75,5.17-13.94,5.17-21.58c0-8.95-2.24-17.17-6.71-24.66c-4.48-7.49-10.53-13.43-18.16-17.83c-7.63-4.4-16-6.6-25.1-6.6
		h-45.57c-1.18,0-2.17,0.41-2.97,1.21c-0.81,0.81-1.21,1.8-1.21,2.97v35.45c0,1.47,0.55,2.75,1.65,3.85c1.1,1.1,2.38,1.65,3.85,1.65
		h14.53c1.61,0,2.93-0.55,3.96-1.65c1.02-1.1,1.54-2.38,1.54-3.85v-5.5c0-1.47,0.55-2.75,1.65-3.85c1.1-1.1,2.46-1.65,4.07-1.65
		h18.49c5.87,0,10.82,1.98,14.86,5.94c4.04,3.96,6.06,8.81,6.06,14.53c0,5.58-2.02,10.35-6.06,14.31
		c-4.04,3.96-8.99,5.94-14.86,5.94h-45.57c-1.18,0-2.17,0.41-2.97,1.21c-0.81,0.81-1.21,1.8-1.21,2.97v76.84
		c0,1.18,0.4,2.13,1.21,2.86c0.81,0.74,1.8,1.1,2.97,1.1h17.17c1.17,0,2.16-0.36,2.97-1.1c0.8-0.73,1.21-1.69,1.21-2.86v-48.44
		c0-1.61,0.47-2.68,1.43-3.19c0.95-0.51,2.31-0.77,4.07-0.77h18.71c2.2,0,3.67,0.15,4.4,0.44c0.73,0.3,1.32,0.88,1.76,1.76
		l22.9,51.52c0.58,1.18,1.28,1.91,2.09,2.2c0.81,0.3,2.02,0.44,3.63,0.44h18.05c2.05,0,3.08-0.81,3.08-2.42
		c0-0.88-0.3-1.83-0.88-2.86L993.2,372.37z"/>
	<path class="st0" d="M902,407.51h-75.78c-1.03,0-1.98-0.44-2.86-1.32c-0.88-0.88-1.32-1.83-1.32-2.86v-24.01
		c0-3.08,1.69-4.63,5.07-4.63h56.18c1.03,0,1.91-0.33,2.64-0.99c0.73-0.66,1.1-1.5,1.1-2.53v-18.95c0-1.03-0.37-1.87-1.1-2.53
		c-0.74-0.66-1.62-0.99-2.64-0.99h-55.52c-3.82,0-5.73-1.39-5.73-4.19v-15.86c0-1.17-0.37-2.13-1.1-2.86
		c-0.74-0.73-1.69-1.1-2.86-1.1h-18.73c-1.03,0-1.95,0.37-2.75,1.1c-0.81,0.74-1.21,1.69-1.21,2.86v101.78
		c0,1.03,0.4,1.95,1.21,2.75c0.81,0.81,1.72,1.21,2.75,1.21H902c1.17,0,2.13-0.4,2.86-1.21c0.73-0.8,1.1-1.72,1.1-2.75v-18.95
		c0-1.17-0.37-2.13-1.1-2.86C904.13,407.88,903.17,407.51,902,407.51z"/>
	<path class="st0" d="M799.34,307.28h102.22c1.17,0,2.16-0.44,2.97-1.32c0.81-0.88,1.21-1.84,1.21-2.86v-18.95
		c0-1.03-0.41-1.95-1.21-2.75c-0.81-0.8-1.8-1.21-2.97-1.21H799.34c-1.03,0-1.95,0.37-2.75,1.1c-0.81,0.74-1.21,1.69-1.21,2.86
		v18.95c0,1.18,0.4,2.17,1.21,2.97C797.39,306.87,798.31,307.28,799.34,307.28z"/>
	<path class="st0" d="M545.02,281.13h-21.91c-1.02,0-1.97,0.4-2.85,1.21c-0.88,0.8-1.31,1.79-1.31,2.96v145.46
		c0,1.02,0.4,1.94,1.21,2.74c0.8,0.8,1.79,1.21,2.96,1.21h21.91c1.17,0,2.12-0.4,2.85-1.21c0.73-0.8,1.1-1.71,1.1-2.74V285.29
		c0-1.17-0.4-2.15-1.2-2.96C546.95,281.54,546.04,281.13,545.02,281.13z"/>
	<path class="st0" d="M649.98,320.38h-63.93c-1.7,0.27-5.47,1.3-6.24,5.22v23.57c0.02,0.2,0.04,0.41,0.04,0.62v20.5h-0.04v60.66
		c0,0.97,0.38,1.85,1.15,2.61c0.76,0.77,1.7,1.15,2.82,1.15h20.86c1.11,0,2.01-0.38,2.71-1.15c0.69-0.76,1.04-1.63,1.04-2.61v-54.04
		h0.03v-27.12c0-1.23,0.46-2.31,1.38-3.27c0.92-0.95,2.03-1.43,3.35-1.43h36.83c0.66,0,1.25-0.27,1.77-0.82
		c0.52-0.54,0.79-1.23,0.79-2.04v-19c0-0.82-0.26-1.5-0.79-2.04C651.23,320.65,650.63,320.38,649.98,320.38z"/>
	<path class="st0" d="M504.55,406.91h-51.17c-1.13,0-2.11-0.47-2.96-1.42c-0.85-0.95-1.27-2-1.27-3.17v-116.4
		c0-1.17-0.42-2.22-1.27-3.17c-0.85-0.95-1.9-1.42-3.17-1.42h-22.84c-1.13,0-2.15,0.48-3.07,1.42c-0.92,0.95-1.37,2.01-1.37,3.17
		v144.18c0,1.31,0.46,2.41,1.37,3.28c0.92,0.88,1.94,1.31,3.07,1.31h82.68c1.27,0,2.33-0.44,3.17-1.31
		c0.85-0.88,1.27-1.97,1.27-3.28v-18.82c0-1.17-0.42-2.19-1.27-3.06C506.88,407.35,505.82,406.91,504.55,406.91z"/>
	<path class="st0" d="M782.25,280.43H680.71c-1.02,0-1.94,0.37-2.74,1.09c-0.8,0.73-1.2,1.68-1.2,2.84v18.82
		c0,1.17,0.4,2.15,1.2,2.95c0.8,0.8,1.71,1.2,2.74,1.2h14.05c1.39,0.04,2.58,0.5,3.57,1.42c1.03,0.96,1.54,2.17,1.54,3.63v119.27
		c0,1.91,0.95,2.86,2.86,2.86h26.18c0.73,0,1.39-0.25,1.98-0.77c0.58-0.51,0.88-1.21,0.88-2.09V312.39c0-1.32,0.51-2.49,1.54-3.52
		c0.99-0.99,2.18-1.49,3.58-1.53h45.35c1.17,0,2.15-0.44,2.95-1.31c0.8-0.88,1.2-1.82,1.2-2.85v-18.82c0-1.02-0.4-1.93-1.2-2.74
		C784.4,280.83,783.42,280.43,782.25,280.43z"/>
	<path class="st0" d="M663.59,280.43H562.05c-1.02,0-1.94,0.37-2.74,1.09c-0.8,0.73-1.2,1.68-1.2,2.84v18.82
		c0,1.17,0.4,2.15,1.2,2.95c0.8,0.8,1.71,1.2,2.74,1.2h101.54c1.17,0,2.15-0.44,2.95-1.31c0.8-0.88,1.2-1.82,1.2-2.85v-18.82
		c0-1.02-0.4-1.93-1.2-2.74C665.74,280.83,664.75,280.43,663.59,280.43z"/>
	<path class="st0" d="M282.56,286.65c-3.55-4.24-7.77-7.68-12.47-10.57c-0.23-0.14-0.48-0.3-0.73-0.33
		c-0.24-0.02-0.57,0.06-0.73,0.22c-0.3,0.32-0.54,0.71-0.75,1.1c-1.18,2.21-2.35,4.44-3.52,6.66
		c-10.17,19.17-20.13,38.46-30.44,57.57c-4.9,9.08-9.63,18.25-14.43,27.38c-2.26,4.29-4.31,8.68-6.07,13.19
		c-2.52,6.46-4.45,13.07-5.32,19.97c-1.01,7.98-0.26,15.75,2.58,23.3c0.35,0.92,0.73,1.84,1.17,2.72c2.39,4.77,5.47,9.05,9.19,12.87
		c2.65,2.73,5.75,4.84,9.01,6.77c0.27-0.18,0.55-0.27,0.68-0.47c0.34-0.52,0.62-1.09,0.91-1.65c15.05-28.57,30.1-57.14,45.14-85.71
		c0.38-0.71,0.72-1.44,1.07-2.17c0.54-1.13,1.03-2.29,1.61-3.4c2.46-4.69,4.74-9.46,6.65-14.41c2.54-6.55,4.5-13.24,5.3-20.25
		c0.51-4.48,0.54-8.94-0.14-13.41C290.18,298.75,287.28,292.29,282.56,286.65z"/>
	<path class="st0" d="M209.86,349.55c1.14,1.31,3.38,1.31,4.53-0.02c0.41-0.47,0.73-1.02,1.03-1.56c2.84-5.19,5.68-10.38,8.49-15.58
		c0.42-0.78,0.79-1.61,1.09-2.45c0.7-1.91,0.72-3.85,0.12-5.8c-0.39-1.29-0.94-2.51-1.58-3.7c-2.74-5.14-5.48-10.28-8.2-15.43
		c-2.35-4.43-4.68-8.88-7.04-13.31c-0.42-0.79-0.87-1.57-1.37-2.31c-0.62-0.94-1.51-1.54-2.64-1.67c-0.98-0.11-1.96-0.21-2.94-0.22
		c-3.23-0.03-6.45-0.01-9.68-0.01c0,0,0,0,0,0c-3.14,0-6.27,0-9.41,0c-0.63,0-1.26-0.03-1.88,0.04c-0.52,0.06-1.06,0.2-1.55,0.4
		c-0.71,0.29-1.11,0.88-1.22,1.64c-0.1,0.73-0.03,1.44,0.3,2.1c0.37,0.72,0.75,1.43,1.14,2.13c9.53,17.36,19.06,34.72,28.59,52.07
		c0.43,0.79,0.84,1.58,1.29,2.36C209.21,348.69,209.51,349.15,209.86,349.55z"/>
	<path class="st0" d="M384.62,356.69c-6.91-3.27-15.86-6.8-26.84-10.57c-3-1.2-6.32-2.64-9.98-4.31
		c-6.15-2.81-10.27-4.89-12.34-6.23c-5.19-3.26-7.78-7.12-7.78-11.56c0-2.81,1.15-5.59,3.45-8.34c2.3-2.74,5.45-5.08,9.45-7.01
		c5.34-2.07,11.04-3.11,17.12-3.11c5.19,0,10.38,0.74,15.57,2.22c4.45,1.19,9.71,3.48,15.79,6.89c0.74,0.45,1.48,0.67,2.22,0.67
		c0.89,0,1.56-0.22,2-0.67l0.22-0.22c-0.04,0-0.06,0.02-0.09,0.03l2.53-3.59c4.3-6.08,6.82-9.93,7.56-11.56
		c0.15-0.29,0-0.81-0.45-1.56c-0.44-0.74-1.04-1.41-1.78-2c-4-3.41-8.31-6.3-12.9-8.67c-4.91-2.31-10.67-4.05-17.27-5.24
		c-7.48-1.67-14.47-1.97-20.79-1.45c-0.21,0.01-0.42,0.01-0.64,0.02c-0.56,0.06-1.12,0.14-1.67,0.21c-0.45,0.05-0.9,0.11-1.35,0.17
		c-0.07,0.01-0.14,0.02-0.21,0.03c-10.8,1.5-19.31,5.26-24.48,8.09c-1.11,0.6-2.17,1.22-3.2,1.88c-1.54,0.97-2.37,1.61-2.37,1.61
		l0,0c-3.74,2.72-6.88,5.87-9.42,9.45c-2.99,4.21-4.98,8.84-5.99,13.9c-0.9,3.19-1.35,6.46-1.35,9.81c0,6.97,2.07,13.72,6.23,20.24
		c3.41,4.89,8.64,9.01,15.68,12.34c6.91,3.27,15.86,6.8,26.84,10.57c3,1.2,6.32,2.64,9.98,4.31c6.15,2.81,10.27,4.89,12.34,6.23
		c5.19,3.26,7.78,7.12,7.78,11.56c0,2.81-1.15,5.59-3.45,8.34c-2.3,2.74-5.45,5.08-9.45,7.01c-5.34,2.07-11.04,3.11-17.12,3.11
		c-5.19,0-10.38-0.74-15.57-2.22c-4.45-1.19-9.71-3.48-15.79-6.89c-0.74-0.45-1.48-0.67-2.22-0.67c-0.89,0-1.56,0.22-2,0.67
		l-0.22,0.22c0.04,0,0.06-0.02,0.09-0.03l-2.53,3.59c-4.3,6.08-6.82,9.93-7.56,11.56c-0.15,0.29,0,0.81,0.45,1.56
		c0.44,0.74,1.04,1.41,1.78,2c4,3.41,8.31,6.3,12.9,8.67c5.04,2.37,10.97,4.15,17.79,5.34c6.82,1.19,13.79,1.63,20.9,1.34
		c9.79-1.04,18.46-3.75,26.02-8.12c7.56-4.37,13.46-9.82,17.68-16.35c4.23-6.53,6.34-13.42,6.34-20.68c0-6.97-2.07-13.72-6.23-20.24
		C396.89,364.14,391.67,360.02,384.62,356.69z"/>
	<path class="st0" d="M152.56,356.64c-6.91-3.27-15.86-6.8-26.84-10.57c-3-1.2-6.32-2.64-9.98-4.31
		c-6.15-2.81-10.27-4.89-12.34-6.23c-5.19-3.26-7.78-7.12-7.78-11.56c0-2.81,1.15-5.59,3.45-8.34c2.3-2.74,5.45-5.08,9.45-7.01
		c5.34-2.07,11.04-3.11,17.12-3.11c5.19,0,10.38,0.74,15.57,2.22c4.45,1.19,9.71,3.48,15.79,6.89c0.74,0.45,1.48,0.67,2.22,0.67
		c0.89,0,1.56-0.22,2-0.67l0.22-0.22c-0.04,0-0.06,0.02-0.09,0.03l2.53-3.59c4.3-6.08,6.82-9.93,7.56-11.56
		c0.15-0.29,0-0.81-0.45-1.56c-0.44-0.74-1.04-1.41-1.78-2c-4-3.41-8.31-6.3-12.9-8.67c-5.04-2.37-10.97-4.15-17.79-5.34
		c-6.82-1.19-13.79-1.63-20.9-1.34c-9.79,1.04-18.46,3.75-26.02,8.12c-7.56,4.37-13.46,9.82-17.68,16.35
		c-4.23,6.53-6.34,13.42-6.34,20.68c0,6.97,2.07,13.72,6.23,20.24c3.41,4.89,8.64,9.01,15.68,12.34c6.91,3.27,15.86,6.8,26.84,10.57
		c3,1.2,6.32,2.64,9.98,4.31c6.15,2.81,10.27,4.89,12.34,6.23c5.19,3.26,7.78,7.12,7.78,11.56c0,2.81-1.15,5.59-3.45,8.34
		c-2.3,2.74-5.45,5.08-9.45,7.01c-5.34,2.07-11.04,3.11-17.12,3.11c-5.19,0-10.38-0.74-15.57-2.22c-4.45-1.19-9.71-3.48-15.79-6.89
		c-0.74-0.45-1.48-0.67-2.22-0.67c-0.89,0-1.56,0.22-2,0.67l-0.22,0.22c0.04,0,0.06-0.02,0.09-0.03l-2.53,3.59
		c-4.3,6.08-6.82,9.93-7.56,11.56c-0.15,0.29,0,0.81,0.45,1.56c0.44,0.74,1.04,1.41,1.78,2c4,3.41,8.31,6.3,12.9,8.67
		c4.91,2.31,10.67,4.05,17.27,5.24c7.48,1.67,14.47,1.97,20.79,1.45c0.21-0.01,0.42-0.01,0.64-0.02c0.56-0.06,1.12-0.14,1.67-0.21
		c0.45-0.05,0.9-0.11,1.35-0.17c0.07-0.01,0.14-0.02,0.21-0.03c10.8-1.5,19.31-5.26,24.48-8.09c1.11-0.6,2.17-1.22,3.2-1.88
		c1.54-0.97,2.37-1.61,2.37-1.61l0,0c3.74-2.72,6.88-5.87,9.42-9.45c2.99-4.21,4.98-8.84,5.99-13.9c0.9-3.19,1.35-6.46,1.35-9.81
		c0-6.97-2.07-13.72-6.23-20.24C164.83,364.09,159.6,359.98,152.56,356.64z"/>
	<path class="st0" d="M1122.01,369.18c-3.41-4.89-8.64-9.01-15.68-12.34c-6.91-3.27-15.86-6.8-26.84-10.57
		c-3-1.2-6.32-2.64-9.98-4.31c-6.15-2.81-10.27-4.89-12.34-6.23c-5.19-3.26-7.78-7.12-7.78-11.56c0-2.81,1.15-5.59,3.45-8.34
		c2.3-2.74,5.45-5.08,9.45-7.01c5.34-2.07,11.04-3.11,17.12-3.11c5.19,0,10.38,0.74,15.57,2.22c4.45,1.19,9.71,3.48,15.79,6.89
		c0.74,0.45,1.48,0.67,2.22,0.67c0.89,0,1.56-0.22,2-0.67l0.22-0.22c-0.04,0-0.06,0.02-0.09,0.03l2.53-3.59
		c4.3-6.08,6.82-9.93,7.56-11.56c0.15-0.29,0-0.81-0.45-1.56c-0.44-0.74-1.04-1.41-1.78-2c-4-3.41-8.31-6.3-12.9-8.67
		c-4.91-2.31-10.67-4.05-17.27-5.24c-7.48-1.67-14.47-1.97-20.79-1.45c-0.21,0.01-0.42,0.01-0.64,0.02
		c-0.56,0.06-1.12,0.14-1.67,0.21c-0.45,0.05-0.9,0.11-1.35,0.17c-0.07,0.01-0.14,0.02-0.21,0.03c-10.8,1.5-19.31,5.26-24.48,8.09
		c-1.11,0.6-2.17,1.22-3.2,1.88c-1.54,0.97-2.37,1.61-2.37,1.61l0,0c-3.74,2.72-6.88,5.87-9.42,9.45c-2.99,4.21-4.98,8.84-5.99,13.9
		c-0.9,3.19-1.35,6.46-1.35,9.81c0,6.97,2.07,13.72,6.23,20.24c3.41,4.89,8.64,9.01,15.68,12.34c6.91,3.27,15.86,6.8,26.84,10.57
		c3,1.2,6.32,2.64,9.98,4.31c6.15,2.81,10.27,4.89,12.34,6.23c5.19,3.26,7.78,7.12,7.78,11.56c0,2.81-1.15,5.59-3.45,8.34
		c-2.3,2.74-5.45,5.08-9.45,7.01c-5.34,2.07-11.04,3.11-17.12,3.11c-5.19,0-10.38-0.74-15.57-2.22c-4.45-1.19-9.71-3.48-15.79-6.89
		c-0.74-0.45-1.48-0.67-2.22-0.67c-0.89,0-1.56,0.22-2,0.67l-0.22,0.22c0.04,0,0.06-0.02,0.09-0.03l-2.53,3.59
		c-4.3,6.08-6.82,9.93-7.56,11.56c-0.15,0.29,0,0.81,0.45,1.56c0.44,0.74,1.04,1.41,1.78,2c4,3.41,8.31,6.3,12.9,8.67
		c5.04,2.37,10.97,4.15,17.79,5.34c6.82,1.19,13.79,1.63,20.9,1.34c9.79-1.04,18.46-3.75,26.02-8.12
		c7.56-4.37,13.46-9.82,17.68-16.35c4.23-6.53,6.34-13.42,6.34-20.68C1128.24,382.45,1126.16,375.7,1122.01,369.18z"/>
</g>
</svg>
