<?xml version="1.0" encoding="UTF-8" standalone="no"?>
<!DOCTYPE svg PUBLIC "-//W3C//DTD SVG 1.1//EN" "http://www.w3.org/Graphics/SVG/1.1/DTD/svg11.dtd">
<!-- Created with Vectornator (http://vectornator.io/) -->
<svg height="100%" stroke-miterlimit="10" style="fill-rule:nonzero;clip-rule:evenodd;stroke-linecap:round;stroke-linejoin:round;" version="1.1" viewBox="0 0 589.774 841.89" width="100%" xml:space="preserve" xmlns="http://www.w3.org/2000/svg" xmlns:vectornator="http://vectornator.io" xmlns:xlink="http://www.w3.org/1999/xlink">
<defs/>
<g id="Untitled" vectornator:layerName="Untitled">
<g opacity="1" vectornator:layerName="g">
<path d="M563.584 157.01C558.341 122.469 544.566 91.7839 522.156 65.022C505.315 44.9078 485.252 28.5628 462.962 14.8392C461.882 14.1711 460.7 13.3829 459.501 13.2801C458.37 13.1773 456.794 13.5543 456.057 14.3252C454.618 15.833 453.47 17.7005 452.493 19.5508C446.874 30.0706 441.34 40.6417 435.754 51.1614C387.456 142.189 340.186 233.766 291.254 324.468C268.004 367.575 245.543 411.093 222.739 454.44C212.03 474.811 202.299 495.645 193.921 517.078C181.962 547.73 172.813 579.117 168.667 611.876C163.852 649.774 167.45 686.662 180.9 722.487C182.544 726.873 184.343 731.208 186.434 735.388C197.776 758.038 212.424 778.341 230.054 796.502C242.613 809.455 257.347 819.46 272.836 828.626C274.104 827.787 275.474 827.324 276.091 826.382C277.719 823.898 279.038 821.208 280.426 818.569C351.871 682.927 423.316 547.284 494.743 411.641C496.525 408.249 498.153 404.788 499.815 401.327C502.385 395.948 504.715 390.465 507.473 385.188C519.141 362.915 529.969 340.248 539.05 316.793C551.094 285.713 560.415 253.914 564.235 220.659C566.685 199.431 566.805 178.22 563.584 157.01Z" fill="#ffffff" fill-rule="nonzero" opacity="1" stroke="none" vectornator:layerName="path"/>
<path d="M177.01 363.652C182.442 369.888 193.047 369.871 198.512 363.549C200.431 361.322 201.99 358.735 203.412 356.13C216.896 331.51 230.363 306.873 243.727 282.167C245.748 278.449 247.462 274.525 248.918 270.533C252.225 261.453 252.327 252.27 249.483 242.983C247.616 236.833 245.012 231.059 241.996 225.422C228.975 201.024 216.005 176.61 203.053 152.178C191.899 131.139 180.814 110.048 169.643 89.0084C167.656 85.2562 165.497 81.5726 163.15 78.0432C160.186 73.5886 155.988 70.7274 150.608 70.1106C145.965 69.5794 141.305 69.1169 136.628 69.0826C121.311 68.9627 105.994 69.0312 90.6768 69.0312L90.6768 69.0141C75.7881 69.0141 60.8995 69.0141 46.0108 69.0141C43.0297 69.0141 40.0314 68.8599 37.0845 69.2025C34.6002 69.4938 32.0645 70.1277 29.7515 71.0872C26.3763 72.4749 24.4745 75.2676 23.9434 78.8998C23.4465 82.3436 23.7892 85.7188 25.3826 88.8542C27.113 92.2637 28.9463 95.6389 30.7795 98.9798C76.028 181.39 121.276 263.8 166.508 346.21C168.547 349.945 170.5 353.732 172.659 357.398C173.961 359.574 175.348 361.75 177.01 363.652Z" fill="#ffffff" fill-rule="nonzero" opacity="1" stroke="none" vectornator:layerName="path"/>
</g>
</g>
</svg>
