<?xml version="1.0" encoding="UTF-8" standalone="no"?>
<!-- Created with Inkscape (http://www.inkscape.org/) -->

<svg
   version="1.1"
   id="svg824"
   xml:space="preserve"
   width="2666.6667"
   height="2666.6667"
   viewBox="0 0 2666.6667 2666.6667"
   sodipodi:docname="Logo-Invert-Transparent.svg"
   inkscape:export-xdpi="96"
   inkscape:export-ydpi="96"
   xmlns:inkscape="http://www.inkscape.org/namespaces/inkscape"
   xmlns:sodipodi="http://sodipodi.sourceforge.net/DTD/sodipodi-0.dtd"
   xmlns="http://www.w3.org/2000/svg"
   xmlns:svg="http://www.w3.org/2000/svg"><defs
     id="defs828"><clipPath
       clipPathUnits="userSpaceOnUse"
       id="clipPath840"><path
         d="M 0,2000 H 2000 V 0 H 0 Z"
         id="path838" /></clipPath></defs><sodipodi:namedview
     id="namedview826"
     pagecolor="#ffffff"
     bordercolor="#666666"
     borderopacity="1.0"
     inkscape:pageshadow="2"
     inkscape:pageopacity="0.0"
     inkscape:pagecheckerboard="true"
     showgrid="false"
     inkscape:zoom="0.41524844"
     inkscape:cx="1320.896"
     inkscape:cy="1342.5697"
     inkscape:window-width="1920"
     inkscape:window-height="1001"
     inkscape:window-x="-9"
     inkscape:window-y="-9"
     inkscape:window-maximized="1"
     inkscape:current-layer="g830" /><g
     id="g830"
     inkscape:groupmode="layer"
     inkscape:label="Logo"
     transform="matrix(1.3333333,0,0,-1.3333333,0,2666.6667)"><path
       d="M 0,0 H 2000 V 2000 H 0 Z"
       style="fill:#ffffff;fill-opacity:0;fill-rule:nonzero;stroke:none"
       id="path832"
       inkscape:export-xdpi="96"
       inkscape:export-ydpi="96" /><g
       id="g834"><g
         id="g836"
         clip-path="url(#clipPath840)"><g
           id="g842"
           transform="translate(497.814,924.7632)"><path
             d="m 0,0 c -22.158,17.596 -36.358,44.748 -36.359,75.237 h -4.625 c -10e-4,-31.946 14.893,-60.432 38.108,-78.86 z"
             style="fill:#0098db;fill-opacity:1;fill-rule:nonzero;stroke:none"
             id="path844" /></g><g
           id="g846"
           transform="translate(586.9766,908.6074)"><path
             d="M 0,0 C -9.295,-2.999 -19.209,-4.619 -29.51,-4.62 -47.012,-4.619 -63.404,0.059 -77.531,8.234 L -79.848,4.23 c 14.806,-8.569 32.008,-13.476 50.338,-13.475 10.786,0 21.184,1.699 30.93,4.843 z"
             style="fill:#001827;fill-opacity:1;fill-rule:nonzero;stroke:none"
             id="path848" /></g><g
           id="g850"
           transform="translate(634.7969,943.083)"><path
             d="m 0,0 c -9.833,-13.338 -23.037,-24.042 -38.347,-30.852 l 1.88,-4.226 c 16.052,7.141 29.884,18.356 40.19,32.333 z"
             style="fill:#0098db;fill-opacity:1;fill-rule:nonzero;stroke:none"
             id="path852" /></g><g
           id="g854"
           transform="translate(653.4785,1000)"><path
             d="m 0,0 c -0.001,-19.01 -5.519,-36.711 -15.043,-51.621 l 3.897,-2.49 C -1.162,-38.488 4.626,-19.91 4.625,0 Z"
             style="fill:#001827;fill-opacity:1;fill-rule:nonzero;stroke:none"
             id="path856" /></g><g
           id="g858"
           transform="translate(620.4937,1072.4302)"><path
             d="m 0,0 c 18.184,-15.838 30.343,-38.399 32.604,-63.812 l 4.607,0.41 c -2.37,26.64 -15.121,50.299 -34.173,66.89 z"
             style="fill:#0098db;fill-opacity:1;fill-rule:nonzero;stroke:none"
             id="path860" /></g><g
           id="g862"
           transform="translate(557.4668,1096.0122)"><path
             d="m 0,0 c 20.437,-0.001 39.362,-6.378 54.93,-17.255 l 2.65,3.791 C 41.268,-2.064 21.405,4.626 0,4.625 Z"
             style="fill:#0098db;fill-opacity:1;fill-rule:nonzero;stroke:none"
             id="path864" /></g><g
           id="g866"
           transform="translate(465.687,1028.2817)"><path
             d="m 0,0 c 10.559,34.313 39.854,60.441 75.93,66.429 l -0.758,4.563 C 37.338,64.705 6.656,37.34 -4.421,1.361 Z"
             style="fill:#001827;fill-opacity:1;fill-rule:nonzero;stroke:none"
             id="path868" /></g><g
           id="g870"
           transform="translate(449.9424,971.6265)"><path
             d="m 0,0 c -2.383,9.056 -3.652,18.563 -3.653,28.374 10e-4,33.902 15.166,64.242 39.091,84.642 l -3,3.52 C 7.526,95.303 -8.279,63.674 -8.278,28.374 c 0,-10.21 1.322,-20.116 3.805,-29.551 z"
             style="fill:#0098db;fill-opacity:1;fill-rule:nonzero;stroke:none"
             id="path872" /></g><g
           id="g874"
           transform="translate(522.5728,894.4092)"><path
             d="m 0,0 c -30.446,10.053 -55.082,32.925 -67.503,62.213 l -4.258,-1.806 C -58.817,29.894 -33.176,6.088 -1.451,-4.392 Z"
             style="fill:#001827;fill-opacity:1;fill-rule:nonzero;stroke:none"
             id="path876" /></g><g
           id="g878"
           transform="translate(664.9902,1028.374)"><path
             d="m 0,0 c 2.383,-9.056 3.653,-18.564 3.653,-28.374 -10e-4,-30.708 -12.441,-58.487 -32.563,-78.614 -20.126,-20.122 -47.906,-32.561 -78.613,-32.563 v -4.625 c 31.97,-0.001 60.935,12.965 81.884,33.918 20.952,20.948 33.918,49.913 33.917,81.884 10e-4,10.209 -1.321,20.115 -3.804,29.551 z"
             style="fill:#0098db;fill-opacity:1;fill-rule:nonzero;stroke:none"
             id="path880" /></g><g
           id="g882"
           transform="translate(499.7197,1095.022)"><path
             d="m 0,0 c 16.833,10.251 36.59,16.154 57.747,16.155 22.421,-0.001 43.273,-6.631 60.734,-18.04 17.46,-11.409 31.519,-27.599 40.312,-46.704 l 4.202,1.934 C 153.833,-26.751 139.197,-9.896 121.012,1.987 102.829,13.871 81.084,20.781 57.747,20.78 35.726,20.781 15.124,14.628 -2.406,3.951 Z"
             style="fill:#0098db;fill-opacity:1;fill-rule:nonzero;stroke:none"
             id="path884" /></g><g
           id="g886"
           transform="translate(635.085,977.7905)"><path
             d="m 0,0 c -4.821,-16.883 -15.008,-31.513 -28.6,-41.918 -13.594,-10.406 -30.573,-16.584 -49.018,-16.585 v -4.625 c 19.485,-10e-4 37.466,6.538 51.83,17.537 14.365,10.998 25.134,26.459 30.236,44.32 z"
             style="fill:#0098db;fill-opacity:1;fill-rule:nonzero;stroke:none"
             id="path888" /></g><g
           id="g890"
           transform="translate(516.4917,1069.5532)"><path
             d="M 0,0 C 12.012,7.091 26.009,11.159 40.975,11.159 59.786,11.158 77.074,4.731 90.8,-6.051 l 2.858,3.637 C 79.155,8.983 60.848,15.786 40.975,15.785 25.167,15.786 10.346,11.481 -2.352,3.983 Z"
             style="fill:#001827;fill-opacity:1;fill-rule:nonzero;stroke:none"
             id="path892" /></g><g
           id="g894"
           transform="translate(476.7544,1000)"><path
             d="m 0,0 c 0.001,24.639 11.03,46.68 28.43,61.493 l -2.997,3.522 C 7.045,49.37 -4.626,26.038 -4.625,0 Z"
             style="fill:#0098db;fill-opacity:1;fill-rule:nonzero;stroke:none"
             id="path896" /></g><g
           id="g898"
           transform="translate(569.1592,1020.2378)"><path
             d="M 0,0 H 1.845 V -4.412 C 1.492,-2.822 0.861,-1.33 0,0"
             style="fill:#0098db;fill-opacity:1;fill-rule:nonzero;stroke:none"
             id="path900" /></g><path
           d="m 553.786,1077.044 h -4.625 v -11.916 h 4.625 z"
           style="fill:#0098db;fill-opacity:1;fill-rule:nonzero;stroke:none"
           id="path902" /><path
           d="m 565.772,1077.044 h -4.625 v -11.916 h 4.625 z"
           style="fill:#0098db;fill-opacity:1;fill-rule:nonzero;stroke:none"
           id="path904" /><path
           d="m 553.786,934.872 h -4.625 v -11.916 h 4.625 z"
           style="fill:#0098db;fill-opacity:1;fill-rule:nonzero;stroke:none"
           id="path906" /><path
           d="m 565.772,934.872 h -4.625 v -11.916 h 4.625 z"
           style="fill:#0098db;fill-opacity:1;fill-rule:nonzero;stroke:none"
           id="path908" /><g
           id="g910"
           transform="translate(544.1987,973.353)"><path
             d="m 0,0 5.747,24.335 0.689,2.903 -1.255,0.902 c -0.359,0.255 -0.7,0.526 -1.029,0.821 -1.301,1.122 -2.382,2.486 -3.186,4.024 -1.006,1.92 -1.579,4.099 -1.579,6.43 0,0.977 0.099,1.931 0.295,2.844 0.341,1.677 0.995,3.232 1.885,4.626 0.543,0.849 1.174,1.636 1.885,2.347 2.521,2.515 5.973,4.065 9.818,4.065 3.839,0 7.296,-1.55 9.812,-4.065 0.705,-0.711 1.341,-1.498 1.878,-2.347 0.862,-1.33 1.492,-2.822 1.845,-4.412 0.225,-0.983 0.341,-2.006 0.341,-3.058 0,-2.331 -0.566,-4.51 -1.579,-6.43 -0.803,-1.538 -1.89,-2.902 -3.185,-4.024 -0.33,-0.295 -0.671,-0.566 -1.024,-0.821 L 20.098,27.238 20.786,24.335 23.931,11.037 25.024,6.412 26.539,0 Z m 26.302,11.037 -3.14,13.298 -0.456,1.926 c 1.081,0.775 2.064,1.682 2.919,2.7 2.394,2.816 3.833,6.47 3.833,10.454 0,8.944 -7.244,16.194 -16.188,16.194 -6.25,0 -11.674,-3.538 -14.368,-8.724 -0.752,-1.428 -1.29,-2.984 -1.573,-4.626 -0.167,-0.925 -0.254,-1.873 -0.254,-2.844 0,-3.984 1.439,-7.638 3.839,-10.454 0.856,-1.018 1.833,-1.925 2.914,-2.7 L 3.371,24.335 -2.925,-2.313 h 32.383 l -2.063,8.725 z"
             style="fill:#0098db;fill-opacity:1;fill-rule:nonzero;stroke:none"
             id="path912" /></g><g
           id="g914"
           transform="translate(527.3315,925.1006)"><path
             d="m 0,0 c -24.417,9.832 -42.929,31.274 -48.692,57.473 l -4.516,-0.995 C -47.106,28.76 -27.551,6.111 -1.728,-4.291 Z"
             style="fill:#0098db;fill-opacity:1;fill-rule:nonzero;stroke:none"
             id="path916" /></g><g
           id="g918"
           transform="translate(489.8325,997.6885)"><path
             d="m 0,0 v 2.313 c 0,18.669 7.574,35.593 19.809,47.821 10.39,10.39 24.168,17.427 39.518,19.3 1.527,0.191 3.07,0.33 4.626,0.411 1.219,0.063 2.445,0.098 3.683,0.098 1.237,0 2.463,-0.035 3.677,-0.104 1.555,-0.075 3.099,-0.214 4.625,-0.399 9.078,-1.116 17.606,-4.024 25.203,-8.366 9.211,-5.262 17.063,-12.622 22.902,-21.434 0.422,-0.641 0.839,-1.289 1.243,-1.948 l -3.943,-2.423 c -0.405,0.659 -0.821,1.307 -1.249,1.949 -5.429,8.152 -12.714,14.963 -21.248,19.837 -9.199,5.261 -19.849,8.262 -31.21,8.262 C 50.227,65.317 34.489,58.27 23.081,46.868 12.182,35.963 5.262,21.109 4.672,4.625 h 53.846 c 0.329,-0.294 0.67,-0.566 1.029,-0.82 L 60.802,2.902 60.113,0 Z"
             style="fill:#001827;fill-opacity:1;fill-rule:nonzero;stroke:none"
             id="path920" /></g><g
           id="g922"
           transform="translate(625.0986,1002.314)"><path
             d="m 0,0 v -2.313 c 0.005,-18.669 -7.574,-35.593 -19.809,-47.827 -10.384,-10.39 -24.162,-17.421 -39.519,-19.299 -1.526,-0.191 -3.07,-0.33 -4.625,-0.411 -1.22,-0.064 -2.446,-0.098 -3.677,-0.098 -1.238,0 -2.464,0.034 -3.683,0.104 -1.556,0.081 -3.1,0.214 -4.626,0.405 -9.823,1.202 -18.999,4.509 -27.059,9.464 -9.632,5.915 -17.663,14.183 -23.306,24 -0.387,0.671 -0.763,1.342 -1.122,2.024 l 4.088,2.168 c 0.364,-0.682 0.734,-1.358 1.121,-2.023 5.25,-9.09 12.709,-16.744 21.642,-22.231 9.586,-5.892 20.861,-9.286 32.945,-9.286 17.403,0 33.141,7.048 44.548,18.456 10.899,10.898 17.82,25.752 18.41,42.242 h -55.442 l -0.688,2.902 1.26,0.902 c 0.353,0.255 0.694,0.526 1.024,0.821 z"
             style="fill:#001827;fill-opacity:1;fill-rule:nonzero;stroke:none"
             id="path924" /></g><g
           id="g926"
           transform="translate(629.6255,1041.5898)"><path
             d="m 0,0 -2.186,-1.341 -30.319,-18.652 -1.209,1.971 c -8.303,13.489 -22.636,21.508 -38.443,21.514 -9.425,0 -18.161,-2.896 -25.4,-7.851 -6.285,-4.302 -11.43,-10.153 -14.882,-16.993 h 28.58 c -0.891,-1.394 -1.544,-2.949 -1.886,-4.626 h -33.742 l 1.312,3.186 c 3.712,9.066 10.026,16.785 18.005,22.249 7.973,5.463 17.634,8.667 28.013,8.661 16.611,0.011 31.852,-8.106 41.126,-21.775 l 11.332,6.973 3.949,2.423 11.142,6.857 2.185,1.342 z"
             style="fill:#0098db;fill-opacity:1;fill-rule:nonzero;stroke:none"
             id="path928" /></g><g
           id="g930"
           transform="translate(618.8945,1052.3579)"><path
             d="m 0,0 c 12.028,-14.101 19.283,-32.37 19.285,-52.358 h 4.625 c 0.001,21.117 -7.679,40.463 -20.391,55.36 z"
             style="fill:#001827;fill-opacity:1;fill-rule:nonzero;stroke:none"
             id="path932" /></g><g
           id="g934"
           transform="translate(604.7925,984.3901)"><path
             d="m 0,0 -1.307,-3.191 c -3.717,-9.06 -10.026,-16.785 -18.005,-22.249 -7.978,-5.458 -17.64,-8.661 -28.012,-8.661 -17.681,0 -33.893,9.314 -42.826,24.452 l -11.761,-6.233 -4.087,-2.169 -11.564,-6.128 -2.266,-1.203 -2.169,4.088 2.262,1.196 31.452,16.676 1.087,-2.041 c 7.858,-14.819 23.122,-24.007 39.872,-24.013 9.418,0 18.155,2.897 25.4,7.858 6.284,4.302 11.43,10.153 14.882,16.993 H -35.57 L -36.663,0 Z"
             style="fill:#0098db;fill-opacity:1;fill-rule:nonzero;stroke:none"
             id="path936" /></g><g
           id="g938"
           transform="translate(549.3799,1001.4932)"><path
             d="m 0,0 c -0.359,0.254 -0.7,0.526 -1.029,0.821 -1.302,1.121 -2.383,2.486 -3.186,4.024 -1.006,1.92 -1.579,4.099 -1.579,6.429 0,0.977 0.099,1.932 0.295,2.845 0.341,1.677 0.995,3.232 1.885,4.626 0.543,0.849 1.174,1.636 1.885,2.347 2.521,2.515 5.973,4.065 9.817,4.065 3.84,0 7.297,-1.55 9.812,-4.065 0.705,-0.711 1.342,-1.498 1.879,-2.347 0.862,-1.33 1.492,-2.822 1.845,-4.412 0.225,-0.983 0.341,-2.006 0.341,-3.059 0,-2.33 -0.567,-4.509 -1.579,-6.429 C 19.583,3.307 18.496,1.942 17.201,0.821 16.871,0.526 16.53,0.254 16.177,0 l -1.26,-0.902 0.688,-2.903 3.145,-13.298 1.093,-4.626 1.514,-6.411 H -5.181 l 5.747,24.335 0.688,2.903 z m -11.032,-32.766 h 38.235 l -2.608,11.037 -1.092,4.626 -3.146,13.298 -0.236,1.024 c 1.231,1.052 2.318,2.266 3.237,3.602 0.411,0.601 0.787,1.226 1.128,1.873 1.347,2.561 2.11,5.493 2.104,8.58 0.006,5.106 -2.069,9.743 -5.417,13.085 -3.342,3.348 -7.985,5.423 -13.085,5.423 -5.105,0 -9.748,-2.075 -13.089,-5.423 -1.602,-1.602 -2.915,-3.504 -3.84,-5.614 -0.647,-1.452 -1.11,-3.007 -1.358,-4.626 -0.145,-0.925 -0.22,-1.879 -0.22,-2.845 0,-3.087 0.763,-6.019 2.11,-8.58 0.341,-0.647 0.717,-1.272 1.127,-1.873 0.92,-1.336 2.007,-2.55 3.239,-3.602 l -0.244,-1.024 z"
             style="fill:#001827;fill-opacity:1;fill-rule:nonzero;stroke:none"
             id="path940" /></g><g
           id="g942"
           transform="translate(797.9092,1043.1812)" /><g
           id="g946"
           transform="translate(887.3174,1048.8901)" /><g
           id="g950"
           transform="translate(977.9473,1043.1812)" /><g
           id="g954"
           transform="translate(1040.7612,958.8696)" /><g
           id="g958"
           transform="translate(1113.9194,951.2495)" /><g
           id="g962"
           transform="translate(1170.3394,1048.8901)" /><g
           id="g966"
           transform="translate(1270.9575,1048.8901)" /><g
           id="g970"
           transform="translate(1340.5767,1048.8901)" /><g
           id="g974"
           transform="translate(1457.8877,1007.2656)" /><g
           id="g978"
           transform="translate(1558.3354,1026.2896)" /></g></g><text
       xml:space="preserve"
       style="font-style:normal;font-variant:normal;font-weight:300;font-stretch:normal;font-size:130px;line-height:1.25;font-family:Exo;-inkscape-font-specification:'Exo Light';fill:#001827;fill-opacity:1;stroke:none;stroke-width:0.75"
       x="752.60913"
       y="-951.84277"
       id="text2010"
       transform="scale(1,-1)"><tspan
         sodipodi:role="line"
         id="tspan2008"
         style="font-style:normal;font-variant:normal;font-weight:300;font-stretch:normal;font-size:130px;font-family:Exo;-inkscape-font-specification:'Exo Light';fill:#001827;fill-opacity:1;stroke-width:0.75"
         x="752.60913"
         y="-951.84277">SYSLIFTERS</tspan></text></g></svg>
